<svg xmlns="http://www.w3.org/2000/svg" xmlns:xlink="http://www.w3.org/1999/xlink" width="700" zoomAndPan="magnify" viewBox="0 0 525 74.999997" height="100" preserveAspectRatio="xMidYMid meet" version="1.0"><defs><g/><clipPath id="2052876b85"><path d="M 341.277344 43 L 385 43 L 385 45 L 341.277344 45 Z M 341.277344 43 " clip-rule="nonzero"/></clipPath><clipPath id="70c1aa0988"><path d="M 341.277344 49 L 385 49 L 385 51 L 341.277344 51 Z M 341.277344 49 " clip-rule="nonzero"/></clipPath><clipPath id="5c5c37bc13"><path d="M 341.277344 55 L 367 55 L 367 57 L 341.277344 57 Z M 341.277344 55 " clip-rule="nonzero"/></clipPath><clipPath id="d398f81d13"><path d="M 419 60 L 423 60 L 423 63.941406 L 419 63.941406 Z M 419 60 " clip-rule="nonzero"/></clipPath><clipPath id="fa1493200f"><path d="M 425 54 L 428.582031 54 L 428.582031 58 L 425 58 Z M 425 54 " clip-rule="nonzero"/></clipPath><clipPath id="0918691e9a"><path d="M 402 36.226562 L 406 36.226562 L 406 40 L 402 40 Z M 402 36.226562 " clip-rule="nonzero"/></clipPath><clipPath id="d5a3660163"><path d="M 384 60 L 388 60 L 388 63.941406 L 384 63.941406 Z M 384 60 " clip-rule="nonzero"/></clipPath><clipPath id="057bbfa1ad"><path d="M 96.375 20.753906 L 459.796875 20.753906 L 459.796875 51.695312 L 96.375 51.695312 Z M 96.375 20.753906 " clip-rule="nonzero"/></clipPath></defs><g fill="#ffffff" fill-opacity="1"><g transform="translate(33.895518, 63.663256)"><g><path d="M 2.96875 0 L 2.96875 -0.84375 L 4.765625 -0.84375 C 6.742188 -0.84375 8.285156 -1.296875 9.390625 -2.203125 C 10.492188 -3.109375 11.046875 -4.640625 11.046875 -6.796875 L 11.046875 -54.140625 C 11.046875 -56.128906 10.492188 -57.578125 9.390625 -58.484375 C 8.285156 -59.390625 6.742188 -59.84375 4.765625 -59.84375 L 2.96875 -59.84375 L 2.96875 -60.6875 L 26.34375 -60.6875 C 41.363281 -60.6875 48.875 -55.8125 48.875 -46.0625 C 48.875 -37.625 43.234375 -32.976562 31.953125 -32.125 L 31.953125 -31.953125 C 38.703125 -31.734375 43.632812 -30.234375 46.75 -27.453125 C 49.863281 -24.679688 51.421875 -20.96875 51.421875 -16.3125 C 51.421875 -5.4375 43.914062 0 28.90625 0 Z M 20.90625 -32.21875 L 26.09375 -32.21875 C 30.507812 -32.21875 33.648438 -33.25 35.515625 -35.3125 C 37.390625 -37.382812 38.328125 -40.828125 38.328125 -45.640625 C 38.328125 -50.796875 37.378906 -54.453125 35.484375 -56.609375 C 33.585938 -58.765625 30.398438 -59.84375 25.921875 -59.84375 L 20.90625 -59.84375 Z M 20.90625 -0.84375 L 28.46875 -0.84375 C 32.945312 -0.84375 36.132812 -2.03125 38.03125 -4.40625 C 39.9375 -6.789062 40.890625 -10.734375 40.890625 -16.234375 C 40.890625 -21.671875 39.953125 -25.550781 38.078125 -27.875 C 36.210938 -30.195312 33.066406 -31.359375 28.640625 -31.359375 L 20.90625 -31.359375 Z M 20.90625 -0.84375 "/></g></g></g><g fill="#ffffff" fill-opacity="1"><g transform="translate(46.921336, 71.111971)"><g><path d="M 2.96875 0 L 2.96875 -0.84375 L 4.765625 -0.84375 C 6.742188 -0.84375 8.285156 -1.296875 9.390625 -2.203125 C 10.492188 -3.109375 11.046875 -4.640625 11.046875 -6.796875 L 11.046875 -54.140625 C 11.046875 -56.179688 10.492188 -57.640625 9.390625 -58.515625 C 8.285156 -59.398438 6.742188 -59.84375 4.765625 -59.84375 L 2.96875 -59.84375 L 2.96875 -60.6875 L 28.984375 -60.6875 L 28.984375 -59.84375 L 27.203125 -59.84375 C 25.210938 -59.84375 23.679688 -59.390625 22.609375 -58.484375 C 21.535156 -57.578125 21 -56.070312 21 -53.96875 L 21 -0.84375 L 35.78125 -0.84375 C 38.894531 -0.84375 41.382812 -1.296875 43.25 -2.203125 C 45.125 -3.109375 46.53125 -4.597656 47.46875 -6.671875 C 48.40625 -8.742188 48.988281 -11.59375 49.21875 -15.21875 L 49.46875 -18.4375 L 50.3125 -18.4375 L 49.71875 0 Z M 2.96875 0 "/></g></g></g><path fill="#ffffff" d="M 402.640625 38.078125 L 384.320312 38.078125 C 384.15625 38.078125 384.027344 37.949219 384.027344 37.785156 C 384.027344 37.625 384.15625 37.496094 384.320312 37.496094 L 402.640625 37.496094 C 402.804688 37.496094 402.933594 37.625 402.933594 37.785156 C 402.933594 37.949219 402.804688 38.078125 402.640625 38.078125 Z M 402.640625 38.078125 " fill-opacity="1" fill-rule="nonzero"/><path fill="#ffffff" d="M 384.527344 37.992188 L 378.417969 44.101562 C 378.304688 44.214844 378.117188 44.214844 378.003906 44.101562 C 377.890625 43.988281 377.890625 43.800781 378.003906 43.6875 L 384.113281 37.578125 C 384.226562 37.464844 384.410156 37.464844 384.527344 37.578125 C 384.640625 37.695312 384.640625 37.878906 384.527344 37.992188 Z M 384.527344 37.992188 " fill-opacity="1" fill-rule="nonzero"/><g clip-path="url(#2052876b85)"><path fill="#ffffff" d="M 341.566406 43.601562 L 384.320312 43.601562 C 384.480469 43.601562 384.609375 43.734375 384.609375 43.894531 C 384.609375 44.054688 384.480469 44.1875 384.320312 44.1875 L 341.566406 44.1875 C 341.402344 44.1875 341.273438 44.054688 341.273438 43.894531 C 341.273438 43.734375 341.402344 43.601562 341.566406 43.601562 Z M 341.566406 43.601562 " fill-opacity="1" fill-rule="nonzero"/></g><path fill="#ffffff" d="M 384.527344 43.6875 L 396.742188 55.902344 C 396.855469 56.015625 396.855469 56.203125 396.742188 56.316406 C 396.628906 56.429688 396.441406 56.429688 396.328125 56.316406 L 384.113281 44.101562 C 384 43.988281 384 43.800781 384.113281 43.6875 C 384.226562 43.574219 384.410156 43.574219 384.527344 43.6875 Z M 384.527344 43.6875 " fill-opacity="1" fill-rule="nonzero"/><path fill="#ffffff" d="M 396.535156 55.816406 L 408.75 55.816406 C 408.910156 55.816406 409.042969 55.949219 409.042969 56.109375 C 409.042969 56.269531 408.910156 56.402344 408.75 56.402344 L 396.535156 56.402344 C 396.375 56.402344 396.242188 56.269531 396.242188 56.109375 C 396.242188 55.949219 396.375 55.816406 396.535156 55.816406 Z M 396.535156 55.816406 " fill-opacity="1" fill-rule="nonzero"/><path fill="#ffffff" d="M 390.21875 49.796875 L 396.328125 43.6875 C 396.441406 43.574219 396.628906 43.574219 396.742188 43.6875 C 396.855469 43.800781 396.855469 43.988281 396.742188 44.101562 L 390.632812 50.207031 C 390.519531 50.324219 390.335938 50.324219 390.21875 50.207031 C 390.105469 50.09375 390.105469 49.910156 390.21875 49.796875 Z M 390.21875 49.796875 " fill-opacity="1" fill-rule="nonzero"/><path fill="#ffffff" d="M 396.535156 43.601562 L 414.859375 43.601562 C 415.019531 43.601562 415.148438 43.734375 415.148438 43.894531 C 415.148438 44.054688 415.019531 44.1875 414.859375 44.1875 L 396.535156 44.1875 C 396.375 44.1875 396.242188 44.054688 396.242188 43.894531 C 396.242188 43.734375 396.375 43.601562 396.535156 43.601562 Z M 396.535156 43.601562 " fill-opacity="1" fill-rule="nonzero"/><g clip-path="url(#70c1aa0988)"><path fill="#ffffff" d="M 341.566406 49.710938 L 384.320312 49.710938 C 384.480469 49.710938 384.609375 49.839844 384.609375 50.003906 C 384.609375 50.164062 384.480469 50.292969 384.320312 50.292969 L 341.566406 50.292969 C 341.402344 50.292969 341.273438 50.164062 341.273438 50.003906 C 341.273438 49.839844 341.402344 49.710938 341.566406 49.710938 Z M 341.566406 49.710938 " fill-opacity="1" fill-rule="nonzero"/></g><path fill="#ffffff" d="M 384.527344 49.796875 L 396.742188 62.011719 C 396.855469 62.125 396.855469 62.308594 396.742188 62.425781 C 396.628906 62.539062 396.441406 62.539062 396.328125 62.425781 L 384.113281 50.207031 C 384 50.09375 384 49.910156 384.113281 49.796875 C 384.226562 49.679688 384.410156 49.679688 384.527344 49.796875 Z M 384.527344 49.796875 " fill-opacity="1" fill-rule="nonzero"/><path fill="#ffffff" d="M 396.535156 61.925781 L 420.964844 61.925781 C 421.128906 61.925781 421.257812 62.054688 421.257812 62.21875 C 421.257812 62.378906 421.128906 62.511719 420.964844 62.511719 L 396.535156 62.511719 C 396.375 62.511719 396.242188 62.378906 396.242188 62.21875 C 396.242188 62.054688 396.375 61.925781 396.535156 61.925781 Z M 396.535156 61.925781 " fill-opacity="1" fill-rule="nonzero"/><path fill="#ffffff" d="M 408.542969 62.011719 L 414.652344 55.902344 C 414.765625 55.789062 414.949219 55.789062 415.066406 55.902344 C 415.179688 56.015625 415.179688 56.203125 415.066406 56.316406 L 408.957031 62.425781 C 408.84375 62.539062 408.65625 62.539062 408.542969 62.425781 C 408.429688 62.308594 408.429688 62.125 408.542969 62.011719 Z M 408.542969 62.011719 " fill-opacity="1" fill-rule="nonzero"/><path fill="#ffffff" d="M 414.859375 55.816406 L 427.074219 55.816406 C 427.234375 55.816406 427.367188 55.949219 427.367188 56.109375 C 427.367188 56.269531 427.234375 56.402344 427.074219 56.402344 L 414.859375 56.402344 C 414.695312 56.402344 414.566406 56.269531 414.566406 56.109375 C 414.566406 55.949219 414.695312 55.816406 414.859375 55.816406 Z M 414.859375 55.816406 " fill-opacity="1" fill-rule="nonzero"/><g clip-path="url(#5c5c37bc13)"><path fill="#ffffff" d="M 341.566406 55.816406 L 365.996094 55.816406 C 366.15625 55.816406 366.289062 55.949219 366.289062 56.109375 C 366.289062 56.269531 366.15625 56.402344 365.996094 56.402344 L 341.566406 56.402344 C 341.402344 56.402344 341.273438 56.269531 341.273438 56.109375 C 341.273438 55.949219 341.402344 55.816406 341.566406 55.816406 Z M 341.566406 55.816406 " fill-opacity="1" fill-rule="nonzero"/></g><path fill="#ffffff" d="M 366.203125 55.902344 L 372.308594 62.011719 C 372.425781 62.125 372.425781 62.308594 372.308594 62.425781 C 372.195312 62.539062 372.011719 62.539062 371.898438 62.425781 L 365.789062 56.316406 C 365.675781 56.203125 365.675781 56.015625 365.789062 55.902344 C 365.902344 55.789062 366.089844 55.789062 366.203125 55.902344 Z M 366.203125 55.902344 " fill-opacity="1" fill-rule="nonzero"/><path fill="#ffffff" d="M 372.105469 61.925781 L 384.320312 61.925781 C 384.480469 61.925781 384.609375 62.054688 384.609375 62.21875 C 384.609375 62.378906 384.480469 62.511719 384.320312 62.511719 L 372.105469 62.511719 C 371.941406 62.511719 371.8125 62.378906 371.8125 62.21875 C 371.8125 62.054688 371.941406 61.925781 372.105469 61.925781 Z M 372.105469 61.925781 " fill-opacity="1" fill-rule="nonzero"/><path fill="#ffffff" d="M 416.289062 43.984375 C 416.242188 44.773438 415.5625 45.375 414.769531 45.328125 C 413.980469 45.277344 413.375 44.597656 413.425781 43.804688 C 413.472656 43.015625 414.15625 42.414062 414.945312 42.460938 C 415.738281 42.511719 416.339844 43.191406 416.289062 43.984375 Z M 416.289062 43.984375 " fill-opacity="1" fill-rule="nonzero"/><path fill="#ffffff" d="M 410.183594 56.199219 C 410.132812 56.988281 409.453125 57.589844 408.664062 57.542969 C 407.871094 57.492188 407.269531 56.8125 407.316406 56.023438 C 407.367188 55.230469 408.046875 54.628906 408.839844 54.675781 C 409.628906 54.726562 410.230469 55.40625 410.183594 56.199219 Z M 410.183594 56.199219 " fill-opacity="1" fill-rule="nonzero"/><g clip-path="url(#d398f81d13)"><path fill="#ffffff" d="M 422.398438 62.304688 C 422.351562 63.097656 421.667969 63.699219 420.878906 63.652344 C 420.085938 63.601562 419.484375 62.921875 419.53125 62.128906 C 419.582031 61.339844 420.261719 60.738281 421.054688 60.785156 C 421.84375 60.832031 422.445312 61.515625 422.398438 62.304688 Z M 422.398438 62.304688 " fill-opacity="1" fill-rule="nonzero"/></g><g clip-path="url(#fa1493200f)"><path fill="#ffffff" d="M 428.507812 56.199219 C 428.457031 56.988281 427.777344 57.589844 426.984375 57.542969 C 426.195312 57.492188 425.59375 56.8125 425.640625 56.023438 C 425.691406 55.230469 426.371094 54.628906 427.160156 54.675781 C 427.953125 54.726562 428.554688 55.40625 428.507812 56.199219 Z M 428.507812 56.199219 " fill-opacity="1" fill-rule="nonzero"/></g><g clip-path="url(#0918691e9a)"><path fill="#ffffff" d="M 405.71875 37.96875 C 405.660156 38.824219 404.917969 39.464844 404.066406 39.40625 C 403.214844 39.34375 402.570312 38.605469 402.632812 37.75 C 402.691406 36.898438 403.433594 36.257812 404.285156 36.316406 C 405.136719 36.378906 405.78125 37.117188 405.71875 37.96875 M 405.105469 37.925781 C 405.140625 37.414062 404.753906 36.96875 404.242188 36.929688 C 403.730469 36.894531 403.285156 37.28125 403.246094 37.792969 C 403.210938 38.308594 403.597656 38.753906 404.109375 38.789062 C 404.625 38.828125 405.070312 38.441406 405.105469 37.925781 Z M 405.105469 37.925781 " fill-opacity="1" fill-rule="nonzero"/></g><g clip-path="url(#d5a3660163)"><path fill="#ffffff" d="M 387.339844 62.402344 C 387.28125 63.257812 386.539062 63.898438 385.6875 63.839844 C 384.835938 63.777344 384.191406 63.039062 384.253906 62.183594 C 384.3125 61.332031 385.054688 60.691406 385.90625 60.75 C 386.757812 60.8125 387.402344 61.550781 387.339844 62.402344 M 386.726562 62.359375 C 386.761719 61.847656 386.375 61.402344 385.863281 61.363281 C 385.347656 61.328125 384.902344 61.714844 384.867188 62.230469 C 384.832031 62.742188 385.21875 63.1875 385.730469 63.222656 C 386.242188 63.261719 386.691406 62.875 386.726562 62.359375 Z M 386.726562 62.359375 " fill-opacity="1" fill-rule="nonzero"/></g><g clip-path="url(#057bbfa1ad)"><path fill="#ffffff" d="M 96.375 20.753906 L 459.835938 20.753906 L 459.835938 51.695312 L 96.375 51.695312 Z M 96.375 20.753906 " fill-opacity="1" fill-rule="nonzero"/></g><g fill="#3b3937" fill-opacity="1"><g transform="translate(128.094527, 41.614441)"><g><path d="M 6.578125 -3.375 C 6.578125 -3.75 6.4375 -4.070312 6.15625 -4.34375 C 5.882812 -4.625 5.554688 -4.765625 5.171875 -4.765625 L 3.5625 -4.765625 L 3.5625 -1.984375 L 5.171875 -1.984375 C 5.554688 -1.984375 5.882812 -2.117188 6.15625 -2.390625 C 6.4375 -2.660156 6.578125 -2.988281 6.578125 -3.375 Z M 5.78125 -8.1875 C 5.78125 -8.5625 5.644531 -8.878906 5.375 -9.140625 C 5.113281 -9.398438 4.800781 -9.53125 4.4375 -9.53125 L 3.5625 -9.53125 L 3.5625 -6.84375 L 4.4375 -6.84375 C 4.800781 -6.84375 5.113281 -6.972656 5.375 -7.234375 C 5.644531 -7.503906 5.78125 -7.820312 5.78125 -8.1875 Z M 9.171875 -3.3125 C 9.171875 -2.3125 8.863281 -1.507812 8.25 -0.90625 C 7.644531 -0.300781 6.785156 0 5.671875 0 L 1.015625 0 L 1.015625 -11.53125 L 4.984375 -11.53125 C 5.640625 -11.53125 6.207031 -11.398438 6.6875 -11.140625 C 7.164062 -10.878906 7.535156 -10.53125 7.796875 -10.09375 C 8.066406 -9.65625 8.203125 -9.171875 8.203125 -8.640625 C 8.203125 -8.054688 8.078125 -7.550781 7.828125 -7.125 C 7.585938 -6.707031 7.253906 -6.398438 6.828125 -6.203125 C 7.472656 -6.054688 8.023438 -5.726562 8.484375 -5.21875 C 8.941406 -4.71875 9.171875 -4.082031 9.171875 -3.3125 Z M 9.171875 -3.3125 "/></g></g></g><g fill="#3b3937" fill-opacity="1"><g transform="translate(150.45405, 41.614441)"><g><path d="M 7.75 -11.53125 L 10.296875 -11.53125 L 10.296875 -4.5 C 10.296875 -2.957031 9.875 -1.789062 9.03125 -1 C 8.195312 -0.21875 7.03125 0.171875 5.53125 0.171875 C 4.019531 0.171875 2.847656 -0.21875 2.015625 -1 C 1.179688 -1.789062 0.765625 -2.957031 0.765625 -4.5 L 0.765625 -11.53125 L 3.3125 -11.53125 L 3.3125 -4.859375 C 3.3125 -4.066406 3.460938 -3.453125 3.765625 -3.015625 C 4.078125 -2.585938 4.664062 -2.375 5.53125 -2.375 C 6.394531 -2.375 6.976562 -2.585938 7.28125 -3.015625 C 7.59375 -3.453125 7.75 -4.066406 7.75 -4.859375 Z M 7.75 -11.53125 "/></g></g></g><g fill="#3b3937" fill-opacity="1"><g transform="translate(174.524801, 41.614441)"><g><path d="M 10.0625 0 L 7.53125 0 L 3.5625 -7.1875 L 3.5625 0 L 1.015625 0 L 1.015625 -11.53125 L 3.5625 -11.53125 L 7.53125 -4.34375 L 7.53125 -11.53125 L 10.0625 -11.53125 Z M 10.0625 0 "/></g></g></g><g fill="#3b3937" fill-opacity="1"><g transform="translate(198.629434, 41.614441)"><g><path d="M 10.0625 0 L 7.53125 0 L 3.5625 -7.1875 L 3.5625 0 L 1.015625 0 L 1.015625 -11.53125 L 3.5625 -11.53125 L 7.53125 -4.34375 L 7.53125 -11.53125 L 10.0625 -11.53125 Z M 10.0625 0 "/></g></g></g><g fill="#3b3937" fill-opacity="1"><g transform="translate(222.734067, 41.614441)"><g><path d="M 4.390625 0 L 4.390625 -5.515625 L 0.140625 -11.53125 L 3.171875 -11.53125 L 5.65625 -7.546875 L 8.15625 -11.53125 L 11.1875 -11.53125 L 6.9375 -5.515625 L 6.9375 0 Z M 4.390625 0 "/></g></g></g><g fill="#3b3937" fill-opacity="1"><g transform="translate(247.075898, 41.614441)"><g><path d="M 7.53125 -4.625 L 3.5625 -4.625 L 3.5625 0 L 1.015625 0 L 1.015625 -11.53125 L 7.703125 -11.53125 L 7.703125 -9.21875 L 3.5625 -9.21875 L 3.5625 -6.9375 L 7.53125 -6.9375 Z M 7.53125 -4.625 "/></g></g></g><g fill="#3b3937" fill-opacity="1"><g transform="translate(268.6391, 41.614441)"><g><path d="M 3.5625 0 L 1.015625 0 L 1.015625 -11.53125 L 3.5625 -11.53125 Z M 3.5625 0 "/></g></g></g><g fill="#3b3937" fill-opacity="1"><g transform="translate(286.237674, 41.614441)"><g><path d="M 7.703125 -2.3125 L 7.703125 0 L 1.015625 0 L 1.015625 -11.53125 L 7.703125 -11.53125 L 7.703125 -9.21875 L 3.5625 -9.21875 L 3.5625 -6.9375 L 7.53125 -6.9375 L 7.53125 -4.625 L 3.5625 -4.625 L 3.5625 -2.3125 Z M 7.703125 -2.3125 "/></g></g></g><g fill="#3b3937" fill-opacity="1"><g transform="translate(307.970302, 41.614441)"><g><path d="M 3.53125 -2.34375 L 4.296875 -2.34375 C 4.941406 -2.34375 5.507812 -2.492188 6 -2.796875 C 6.5 -3.097656 6.882812 -3.507812 7.15625 -4.03125 C 7.4375 -4.550781 7.578125 -5.128906 7.578125 -5.765625 C 7.578125 -6.410156 7.4375 -6.988281 7.15625 -7.5 C 6.882812 -8.007812 6.5 -8.414062 6 -8.71875 C 5.507812 -9.019531 4.941406 -9.171875 4.296875 -9.171875 L 3.53125 -9.171875 Z M 1.015625 -11.53125 L 4.4375 -11.53125 C 5.25 -11.53125 6.003906 -11.378906 6.703125 -11.078125 C 7.398438 -10.785156 8.007812 -10.378906 8.53125 -9.859375 C 9.050781 -9.347656 9.453125 -8.738281 9.734375 -8.03125 C 10.023438 -7.332031 10.171875 -6.578125 10.171875 -5.765625 C 10.171875 -4.953125 10.023438 -4.191406 9.734375 -3.484375 C 9.453125 -2.785156 9.050781 -2.175781 8.53125 -1.65625 C 8.019531 -1.132812 7.410156 -0.726562 6.703125 -0.4375 C 6.003906 -0.144531 5.25 0 4.4375 0 L 1.015625 0 Z M 1.015625 -11.53125 "/></g></g></g><g fill="#3b3937" fill-opacity="1"><g transform="translate(331.753022, 41.614441)"><g/></g></g><g fill="#3b3937" fill-opacity="1"><g transform="translate(349.012732, 41.614441)"><g><path d="M 1.015625 0 L 1.015625 -11.53125 L 3.5625 -11.53125 L 3.5625 -2.3125 L 7.703125 -2.3125 L 7.703125 0 Z M 1.015625 0 "/></g></g></g><g fill="#3b3937" fill-opacity="1"><g transform="translate(370.321794, 41.614441)"><g><path d="M 7.296875 -4.40625 L 5.828125 -8.515625 L 4.375 -4.40625 Z M 11.59375 0 L 8.859375 0 L 8.03125 -2.328125 L 3.640625 -2.328125 L 2.8125 0 L 0.078125 0 L 4.765625 -11.53125 L 6.921875 -11.53125 Z M 11.59375 0 "/></g></g></g><g fill="#3b3937" fill-opacity="1"><g transform="translate(395.01943, 41.614441)"><g><path d="M 6.578125 -3.375 C 6.578125 -3.75 6.4375 -4.070312 6.15625 -4.34375 C 5.882812 -4.625 5.554688 -4.765625 5.171875 -4.765625 L 3.5625 -4.765625 L 3.5625 -1.984375 L 5.171875 -1.984375 C 5.554688 -1.984375 5.882812 -2.117188 6.15625 -2.390625 C 6.4375 -2.660156 6.578125 -2.988281 6.578125 -3.375 Z M 5.78125 -8.1875 C 5.78125 -8.5625 5.644531 -8.878906 5.375 -9.140625 C 5.113281 -9.398438 4.800781 -9.53125 4.4375 -9.53125 L 3.5625 -9.53125 L 3.5625 -6.84375 L 4.4375 -6.84375 C 4.800781 -6.84375 5.113281 -6.972656 5.375 -7.234375 C 5.644531 -7.503906 5.78125 -7.820312 5.78125 -8.1875 Z M 9.171875 -3.3125 C 9.171875 -2.3125 8.863281 -1.507812 8.25 -0.90625 C 7.644531 -0.300781 6.785156 0 5.671875 0 L 1.015625 0 L 1.015625 -11.53125 L 4.984375 -11.53125 C 5.640625 -11.53125 6.207031 -11.398438 6.6875 -11.140625 C 7.164062 -10.878906 7.535156 -10.53125 7.796875 -10.09375 C 8.066406 -9.65625 8.203125 -9.171875 8.203125 -8.640625 C 8.203125 -8.054688 8.078125 -7.550781 7.828125 -7.125 C 7.585938 -6.707031 7.253906 -6.398438 6.828125 -6.203125 C 7.472656 -6.054688 8.023438 -5.726562 8.484375 -5.21875 C 8.941406 -4.71875 9.171875 -4.082031 9.171875 -3.3125 Z M 9.171875 -3.3125 "/></g></g></g><g fill="#3b3937" fill-opacity="1"><g transform="translate(417.378954, 41.614441)"><g><path d="M 5.5 -1.796875 C 5.769531 -1.796875 6.0625 -1.835938 6.375 -1.921875 C 6.6875 -2.003906 6.957031 -2.144531 7.1875 -2.34375 C 7.425781 -2.539062 7.546875 -2.8125 7.546875 -3.15625 C 7.546875 -3.46875 7.421875 -3.71875 7.171875 -3.90625 C 6.929688 -4.101562 6.613281 -4.265625 6.21875 -4.390625 C 5.820312 -4.515625 5.390625 -4.628906 4.921875 -4.734375 C 4.453125 -4.847656 3.976562 -4.976562 3.5 -5.125 C 3.03125 -5.28125 2.597656 -5.484375 2.203125 -5.734375 C 1.804688 -5.984375 1.484375 -6.304688 1.234375 -6.703125 C 0.992188 -7.097656 0.875 -7.597656 0.875 -8.203125 C 0.875 -8.804688 1 -9.320312 1.25 -9.75 C 1.5 -10.1875 1.828125 -10.550781 2.234375 -10.84375 C 2.648438 -11.132812 3.113281 -11.347656 3.625 -11.484375 C 4.144531 -11.628906 4.664062 -11.703125 5.1875 -11.703125 C 5.976562 -11.703125 6.71875 -11.578125 7.40625 -11.328125 C 8.09375 -11.078125 8.65625 -10.679688 9.09375 -10.140625 C 9.53125 -9.609375 9.757812 -8.898438 9.78125 -8.015625 L 7.328125 -8.015625 C 7.253906 -8.617188 7.039062 -9.035156 6.6875 -9.265625 C 6.34375 -9.492188 5.851562 -9.609375 5.21875 -9.609375 C 4.976562 -9.609375 4.722656 -9.566406 4.453125 -9.484375 C 4.191406 -9.410156 3.96875 -9.285156 3.78125 -9.109375 C 3.601562 -8.929688 3.515625 -8.695312 3.515625 -8.40625 C 3.515625 -8.113281 3.632812 -7.878906 3.875 -7.703125 C 4.113281 -7.535156 4.429688 -7.394531 4.828125 -7.28125 C 5.222656 -7.175781 5.65625 -7.070312 6.125 -6.96875 C 6.601562 -6.863281 7.078125 -6.738281 7.546875 -6.59375 C 8.015625 -6.445312 8.445312 -6.242188 8.84375 -5.984375 C 9.238281 -5.734375 9.554688 -5.40625 9.796875 -5 C 10.046875 -4.59375 10.171875 -4.070312 10.171875 -3.4375 C 10.171875 -2.757812 10.035156 -2.179688 9.765625 -1.703125 C 9.492188 -1.234375 9.128906 -0.851562 8.671875 -0.5625 C 8.210938 -0.28125 7.695312 -0.0703125 7.125 0.0625 C 6.550781 0.195312 5.972656 0.265625 5.390625 0.265625 C 4.546875 0.265625 3.753906 0.125 3.015625 -0.15625 C 2.273438 -0.445312 1.675781 -0.890625 1.21875 -1.484375 C 0.757812 -2.085938 0.523438 -2.859375 0.515625 -3.796875 L 3.078125 -3.796875 C 3.117188 -3.109375 3.375 -2.601562 3.84375 -2.28125 C 4.320312 -1.957031 4.875 -1.796875 5.5 -1.796875 Z M 5.5 -1.796875 "/></g></g></g><g fill="#ffffff" fill-opacity="1"><g transform="translate(215.701621, 59.54943)"><g><path d="M 3.21875 -5.03125 L 3.21875 0 L 1.84375 0 L 1.84375 -5.03125 L 0.046875 -5.03125 L 0.046875 -6.28125 L 5.015625 -6.28125 L 5.015625 -5.03125 Z M 3.21875 -5.03125 "/></g></g></g><g fill="#ffffff" fill-opacity="1"><g transform="translate(227.857721, 59.54943)"><g><path d="M 4.1875 -1.25 L 4.1875 0 L 0.546875 0 L 0.546875 -6.28125 L 4.1875 -6.28125 L 4.1875 -5.03125 L 1.9375 -5.03125 L 1.9375 -3.78125 L 4.09375 -3.78125 L 4.09375 -2.515625 L 1.9375 -2.515625 L 1.9375 -1.25 Z M 4.1875 -1.25 "/></g></g></g><g fill="#ffffff" fill-opacity="1"><g transform="translate(239.699829, 59.54943)"><g><path d="M 5.09375 -2.140625 L 6.625 -2.140625 C 6.488281 -1.703125 6.269531 -1.316406 5.96875 -0.984375 C 5.664062 -0.648438 5.304688 -0.382812 4.890625 -0.1875 C 4.484375 0 4.039062 0.09375 3.5625 0.09375 C 3.113281 0.09375 2.691406 0.0078125 2.296875 -0.15625 C 1.910156 -0.320312 1.566406 -0.550781 1.265625 -0.84375 C 0.972656 -1.144531 0.742188 -1.488281 0.578125 -1.875 C 0.410156 -2.269531 0.328125 -2.691406 0.328125 -3.140625 C 0.328125 -3.578125 0.410156 -3.992188 0.578125 -4.390625 C 0.742188 -4.785156 0.972656 -5.128906 1.265625 -5.421875 C 1.566406 -5.722656 1.910156 -5.957031 2.296875 -6.125 C 2.691406 -6.289062 3.113281 -6.375 3.5625 -6.375 C 4.039062 -6.375 4.484375 -6.273438 4.890625 -6.078125 C 5.296875 -5.890625 5.648438 -5.628906 5.953125 -5.296875 C 6.253906 -4.972656 6.476562 -4.597656 6.625 -4.171875 L 5.078125 -4.171875 C 4.953125 -4.453125 4.742188 -4.671875 4.453125 -4.828125 C 4.171875 -4.992188 3.875 -5.078125 3.5625 -5.078125 C 3.21875 -5.078125 2.90625 -4.988281 2.625 -4.8125 C 2.351562 -4.632812 2.132812 -4.398438 1.96875 -4.109375 C 1.8125 -3.816406 1.734375 -3.492188 1.734375 -3.140625 C 1.734375 -2.785156 1.8125 -2.460938 1.96875 -2.171875 C 2.132812 -1.878906 2.351562 -1.644531 2.625 -1.46875 C 2.90625 -1.289062 3.21875 -1.203125 3.5625 -1.203125 C 3.882812 -1.203125 4.1875 -1.285156 4.46875 -1.453125 C 4.75 -1.628906 4.957031 -1.859375 5.09375 -2.140625 Z M 5.09375 -2.140625 "/></g></g></g><g fill="#ffffff" fill-opacity="1"><g transform="translate(253.656758, 59.54943)"><g><path d="M 4 -6.28125 L 5.484375 -6.28125 L 5.484375 0 L 4 0 L 4 -2.515625 L 1.9375 -2.515625 L 1.9375 0 L 0.546875 0 L 0.546875 -6.28125 L 1.9375 -6.28125 L 1.9375 -3.78125 L 4 -3.78125 Z M 4 -6.28125 "/></g></g></g><g fill="#ffffff" fill-opacity="1"><g transform="translate(266.791776, 59.54943)"><g><path d="M 5.484375 0 L 4.09375 0 L 1.9375 -3.921875 L 1.9375 0 L 0.546875 0 L 0.546875 -6.28125 L 1.9375 -6.28125 L 4.09375 -2.359375 L 4.09375 -6.28125 L 5.484375 -6.28125 Z M 5.484375 0 "/></g></g></g><g fill="#ffffff" fill-opacity="1"><g transform="translate(279.926794, 59.54943)"><g><path d="M 5.40625 -3.15625 C 5.40625 -3.476562 5.316406 -3.78125 5.140625 -4.0625 C 4.972656 -4.34375 4.75 -4.566406 4.46875 -4.734375 C 4.1875 -4.910156 3.882812 -5 3.5625 -5 C 3.238281 -5 2.929688 -4.910156 2.640625 -4.734375 C 2.359375 -4.566406 2.128906 -4.34375 1.953125 -4.0625 C 1.785156 -3.78125 1.703125 -3.476562 1.703125 -3.15625 C 1.703125 -2.832031 1.785156 -2.523438 1.953125 -2.234375 C 2.128906 -1.953125 2.359375 -1.722656 2.640625 -1.546875 C 2.929688 -1.378906 3.238281 -1.296875 3.5625 -1.296875 C 3.882812 -1.296875 4.1875 -1.378906 4.46875 -1.546875 C 4.75 -1.722656 4.972656 -1.953125 5.140625 -2.234375 C 5.316406 -2.523438 5.40625 -2.832031 5.40625 -3.15625 Z M 6.78125 -3.140625 C 6.78125 -2.710938 6.691406 -2.300781 6.515625 -1.90625 C 6.347656 -1.519531 6.113281 -1.175781 5.8125 -0.875 C 5.519531 -0.570312 5.175781 -0.332031 4.78125 -0.15625 C 4.394531 0.0078125 3.988281 0.09375 3.5625 0.09375 C 3.125 0.09375 2.707031 0.0078125 2.3125 -0.15625 C 1.925781 -0.332031 1.582031 -0.570312 1.28125 -0.875 C 0.988281 -1.175781 0.753906 -1.519531 0.578125 -1.90625 C 0.410156 -2.300781 0.328125 -2.710938 0.328125 -3.140625 C 0.328125 -3.578125 0.410156 -3.988281 0.578125 -4.375 C 0.753906 -4.757812 0.988281 -5.101562 1.28125 -5.40625 C 1.582031 -5.707031 1.925781 -5.941406 2.3125 -6.109375 C 2.707031 -6.285156 3.125 -6.375 3.5625 -6.375 C 3.988281 -6.375 4.394531 -6.285156 4.78125 -6.109375 C 5.175781 -5.941406 5.519531 -5.707031 5.8125 -5.40625 C 6.113281 -5.101562 6.347656 -4.757812 6.515625 -4.375 C 6.691406 -3.988281 6.78125 -3.578125 6.78125 -3.140625 Z M 6.78125 -3.140625 "/></g></g></g><g fill="#ffffff" fill-opacity="1"><g transform="translate(294.133073, 59.54943)"><g><path d="M 0.546875 0 L 0.546875 -6.28125 L 1.9375 -6.28125 L 1.9375 -1.25 L 4.1875 -1.25 L 4.1875 0 Z M 0.546875 0 "/></g></g></g><g fill="#ffffff" fill-opacity="1"><g transform="translate(305.744302, 59.54943)"><g><path d="M 5.40625 -3.15625 C 5.40625 -3.476562 5.316406 -3.78125 5.140625 -4.0625 C 4.972656 -4.34375 4.75 -4.566406 4.46875 -4.734375 C 4.1875 -4.910156 3.882812 -5 3.5625 -5 C 3.238281 -5 2.929688 -4.910156 2.640625 -4.734375 C 2.359375 -4.566406 2.128906 -4.34375 1.953125 -4.0625 C 1.785156 -3.78125 1.703125 -3.476562 1.703125 -3.15625 C 1.703125 -2.832031 1.785156 -2.523438 1.953125 -2.234375 C 2.128906 -1.953125 2.359375 -1.722656 2.640625 -1.546875 C 2.929688 -1.378906 3.238281 -1.296875 3.5625 -1.296875 C 3.882812 -1.296875 4.1875 -1.378906 4.46875 -1.546875 C 4.75 -1.722656 4.972656 -1.953125 5.140625 -2.234375 C 5.316406 -2.523438 5.40625 -2.832031 5.40625 -3.15625 Z M 6.78125 -3.140625 C 6.78125 -2.710938 6.691406 -2.300781 6.515625 -1.90625 C 6.347656 -1.519531 6.113281 -1.175781 5.8125 -0.875 C 5.519531 -0.570312 5.175781 -0.332031 4.78125 -0.15625 C 4.394531 0.0078125 3.988281 0.09375 3.5625 0.09375 C 3.125 0.09375 2.707031 0.0078125 2.3125 -0.15625 C 1.925781 -0.332031 1.582031 -0.570312 1.28125 -0.875 C 0.988281 -1.175781 0.753906 -1.519531 0.578125 -1.90625 C 0.410156 -2.300781 0.328125 -2.710938 0.328125 -3.140625 C 0.328125 -3.578125 0.410156 -3.988281 0.578125 -4.375 C 0.753906 -4.757812 0.988281 -5.101562 1.28125 -5.40625 C 1.582031 -5.707031 1.925781 -5.941406 2.3125 -6.109375 C 2.707031 -6.285156 3.125 -6.375 3.5625 -6.375 C 3.988281 -6.375 4.394531 -6.285156 4.78125 -6.109375 C 5.175781 -5.941406 5.519531 -5.707031 5.8125 -5.40625 C 6.113281 -5.101562 6.347656 -4.757812 6.515625 -4.375 C 6.691406 -3.988281 6.78125 -3.578125 6.78125 -3.140625 Z M 6.78125 -3.140625 "/></g></g></g><g fill="#ffffff" fill-opacity="1"><g transform="translate(319.950581, 59.54943)"><g><path d="M 3.6875 -5.078125 C 3.351562 -5.078125 3.046875 -4.988281 2.765625 -4.8125 C 2.492188 -4.632812 2.273438 -4.394531 2.109375 -4.09375 C 1.941406 -3.800781 1.859375 -3.476562 1.859375 -3.125 C 1.859375 -2.769531 1.941406 -2.441406 2.109375 -2.140625 C 2.273438 -1.847656 2.492188 -1.609375 2.765625 -1.421875 C 3.046875 -1.242188 3.351562 -1.15625 3.6875 -1.15625 C 3.894531 -1.15625 4.109375 -1.1875 4.328125 -1.25 C 4.554688 -1.3125 4.765625 -1.425781 4.953125 -1.59375 C 5.148438 -1.757812 5.304688 -2 5.421875 -2.3125 L 3.828125 -2.3125 L 3.828125 -3.359375 L 6.921875 -3.359375 L 6.921875 -3.140625 C 6.921875 -2.691406 6.835938 -2.269531 6.671875 -1.875 C 6.503906 -1.488281 6.269531 -1.144531 5.96875 -0.84375 C 5.675781 -0.550781 5.335938 -0.320312 4.953125 -0.15625 C 4.566406 0.0078125 4.144531 0.09375 3.6875 0.09375 C 3.25 0.09375 2.832031 0.0078125 2.4375 -0.15625 C 2.050781 -0.332031 1.707031 -0.566406 1.40625 -0.859375 C 1.113281 -1.148438 0.882812 -1.488281 0.71875 -1.875 C 0.550781 -2.269531 0.46875 -2.691406 0.46875 -3.140625 C 0.46875 -3.578125 0.550781 -3.992188 0.71875 -4.390625 C 0.882812 -4.785156 1.113281 -5.128906 1.40625 -5.421875 C 1.707031 -5.710938 2.050781 -5.941406 2.4375 -6.109375 C 2.832031 -6.285156 3.25 -6.375 3.6875 -6.375 C 4.15625 -6.375 4.59375 -6.28125 5 -6.09375 C 5.414062 -5.90625 5.773438 -5.644531 6.078125 -5.3125 C 6.390625 -4.988281 6.617188 -4.609375 6.765625 -4.171875 L 5.234375 -4.171875 C 5.078125 -4.492188 4.859375 -4.722656 4.578125 -4.859375 C 4.296875 -5.003906 4 -5.078125 3.6875 -5.078125 Z M 3.6875 -5.078125 "/></g></g></g><g fill="#ffffff" fill-opacity="1"><g transform="translate(334.286155, 59.54943)"><g><path d="M 2.390625 0 L 2.390625 -3 L 0.078125 -6.28125 L 1.734375 -6.28125 L 3.078125 -4.109375 L 4.4375 -6.28125 L 6.09375 -6.28125 L 3.78125 -3 L 3.78125 0 Z M 2.390625 0 "/></g></g></g></svg>