<svg xmlns="http://www.w3.org/2000/svg" xmlns:xlink="http://www.w3.org/1999/xlink" width="700" zoomAndPan="magnify" viewBox="0 0 525 74.999997" height="100" preserveAspectRatio="xMidYMid meet" version="1.0"><defs><g/></defs><g fill="#ffffff" fill-opacity="1"><g transform="translate(9.23841, 65.243367)"><g><path d="M 4.046875 -45.03125 C 4.046875 -46.707031 3.820312 -48.035156 3.375 -49.015625 C 2.925781 -49.992188 2.175781 -50.617188 1.125 -50.890625 L 1.125 -51.328125 L 27.203125 -51.328125 C 30.441406 -51.328125 33.140625 -50.832031 35.296875 -49.84375 C 37.460938 -48.851562 39.078125 -47.507812 40.140625 -45.8125 C 41.210938 -44.125 41.75 -42.195312 41.75 -40.03125 C 41.75 -38.738281 41.519531 -37.476562 41.0625 -36.25 C 40.613281 -35.019531 39.867188 -33.882812 38.828125 -32.84375 C 37.796875 -31.8125 36.394531 -30.925781 34.625 -30.1875 C 32.851562 -29.457031 30.648438 -28.941406 28.015625 -28.640625 C 38.546875 -27.648438 43.8125 -22.832031 43.8125 -14.1875 C 43.8125 -12.351562 43.476562 -10.585938 42.8125 -8.890625 C 42.15625 -7.191406 41.160156 -5.675781 39.828125 -4.34375 C 38.492188 -3.007812 36.84375 -1.953125 34.875 -1.171875 C 32.90625 -0.390625 30.617188 0 28.015625 0 L 1.125 0 L 1.125 -0.453125 C 2.175781 -0.722656 2.925781 -1.351562 3.375 -2.34375 C 3.820312 -3.332031 4.046875 -4.648438 4.046875 -6.296875 Z M 18.46875 -0.90625 L 20.3125 -0.90625 C 22.164062 -0.90625 23.726562 -1.488281 25 -2.65625 C 26.28125 -3.820312 27.25 -5.429688 27.90625 -7.484375 C 28.570312 -9.546875 28.90625 -11.929688 28.90625 -14.640625 C 28.90625 -17.242188 28.597656 -19.550781 27.984375 -21.5625 C 27.367188 -23.582031 26.382812 -25.160156 25.03125 -26.296875 C 23.6875 -27.441406 21.898438 -28.015625 19.671875 -28.015625 L 18.46875 -28.015625 Z M 20.40625 -50.4375 L 18.46875 -50.4375 L 18.46875 -28.90625 L 19.671875 -28.90625 C 21.472656 -28.90625 22.898438 -29.414062 23.953125 -30.4375 C 25.003906 -31.457031 25.753906 -32.789062 26.203125 -34.4375 C 26.660156 -36.09375 26.890625 -37.867188 26.890625 -39.765625 C 26.890625 -41.566406 26.671875 -43.273438 26.234375 -44.890625 C 25.796875 -46.515625 25.101562 -47.84375 24.15625 -48.875 C 23.207031 -49.914062 21.957031 -50.4375 20.40625 -50.4375 Z M 20.40625 -50.4375 "/></g></g></g><g fill="#ffffff" fill-opacity="1"><g transform="translate(53.732903, 65.243367)"><g><path d="M 1.125 -51.328125 L 21.390625 -51.328125 L 21.390625 -50.890625 C 20.335938 -50.617188 19.585938 -49.992188 19.140625 -49.015625 C 18.691406 -48.035156 18.46875 -46.707031 18.46875 -45.03125 L 18.46875 -7.65625 C 18.46875 -7 18.476562 -6.265625 18.5 -5.453125 C 18.53125 -4.640625 18.644531 -3.847656 18.84375 -3.078125 C 19.039062 -2.316406 19.378906 -1.6875 19.859375 -1.1875 C 20.335938 -0.695312 21.03125 -0.453125 21.9375 -0.453125 C 22.894531 -0.453125 23.617188 -0.679688 24.109375 -1.140625 C 24.609375 -1.609375 24.953125 -2.21875 25.140625 -2.96875 C 25.335938 -3.71875 25.441406 -4.503906 25.453125 -5.328125 C 25.472656 -6.160156 25.484375 -6.9375 25.484375 -7.65625 L 25.484375 -45.03125 C 25.484375 -46.707031 25.257812 -48.035156 24.8125 -49.015625 C 24.363281 -49.992188 23.613281 -50.617188 22.5625 -50.890625 L 22.5625 -51.328125 L 42.828125 -51.328125 L 42.828125 -50.890625 C 41.773438 -50.617188 41.019531 -49.992188 40.5625 -49.015625 C 40.113281 -48.035156 39.890625 -46.707031 39.890625 -45.03125 L 39.890625 -16.296875 C 39.890625 -12.691406 39.28125 -9.613281 38.0625 -7.0625 C 36.851562 -4.519531 34.9375 -2.5625 32.3125 -1.1875 C 29.6875 0.175781 26.238281 0.859375 21.96875 0.859375 C 17.738281 0.859375 14.300781 0.175781 11.65625 -1.1875 C 9.019531 -2.5625 7.09375 -4.519531 5.875 -7.0625 C 4.65625 -9.613281 4.046875 -12.691406 4.046875 -16.296875 L 4.046875 -45.03125 C 4.046875 -46.707031 3.820312 -48.035156 3.375 -49.015625 C 2.925781 -49.992188 2.175781 -50.617188 1.125 -50.890625 Z M 1.125 -51.328125 "/></g></g></g><g fill="#ffffff" fill-opacity="1"><g transform="translate(96.335918, 65.243367)"><g><path d="M 1.125 -50.890625 L 1.125 -51.328125 L 15.8125 -51.328125 L 37.15625 -14.71875 L 37.15625 -17.65625 C 37.15625 -19.875 37.003906 -22.210938 36.703125 -24.671875 C 36.398438 -27.140625 35.976562 -29.601562 35.4375 -32.0625 C 34.894531 -34.519531 34.265625 -36.851562 33.546875 -39.0625 C 32.828125 -41.269531 32.023438 -43.25 31.140625 -45 C 30.253906 -46.757812 29.328125 -48.15625 28.359375 -49.1875 C 27.398438 -50.226562 26.425781 -50.796875 25.4375 -50.890625 L 25.4375 -51.328125 L 40.984375 -51.328125 L 40.984375 -50.890625 C 39.929688 -50.617188 39.175781 -49.992188 38.71875 -49.015625 C 38.269531 -48.035156 38.046875 -46.707031 38.046875 -45.03125 L 38.046875 -6.296875 C 38.046875 -4.648438 38.269531 -3.332031 38.71875 -2.34375 C 39.175781 -1.351562 39.929688 -0.722656 40.984375 -0.453125 L 40.984375 0 L 28.5 0 L 4.953125 -40.4375 L 4.953125 -38 C 4.953125 -35.570312 5.09375 -33.003906 5.375 -30.296875 C 5.664062 -27.597656 6.082031 -24.894531 6.625 -22.1875 C 7.164062 -19.488281 7.8125 -16.898438 8.5625 -14.421875 C 9.3125 -11.953125 10.132812 -9.710938 11.03125 -7.703125 C 11.9375 -5.691406 12.898438 -4.054688 13.921875 -2.796875 C 14.941406 -1.535156 16.003906 -0.753906 17.109375 -0.453125 L 17.109375 0 L 1.125 0 L 1.125 -0.453125 C 2.175781 -0.722656 2.925781 -1.351562 3.375 -2.34375 C 3.820312 -3.332031 4.046875 -4.648438 4.046875 -6.296875 L 4.046875 -45.03125 C 4.046875 -46.707031 3.820312 -48.035156 3.375 -49.015625 C 2.925781 -49.992188 2.175781 -50.617188 1.125 -50.890625 Z M 1.125 -50.890625 "/></g></g></g><g fill="#ffffff" fill-opacity="1"><g transform="translate(137.092479, 65.243367)"><g><path d="M 1.125 -50.890625 L 1.125 -51.328125 L 15.8125 -51.328125 L 37.15625 -14.71875 L 37.15625 -17.65625 C 37.15625 -19.875 37.003906 -22.210938 36.703125 -24.671875 C 36.398438 -27.140625 35.976562 -29.601562 35.4375 -32.0625 C 34.894531 -34.519531 34.265625 -36.851562 33.546875 -39.0625 C 32.828125 -41.269531 32.023438 -43.25 31.140625 -45 C 30.253906 -46.757812 29.328125 -48.15625 28.359375 -49.1875 C 27.398438 -50.226562 26.425781 -50.796875 25.4375 -50.890625 L 25.4375 -51.328125 L 40.984375 -51.328125 L 40.984375 -50.890625 C 39.929688 -50.617188 39.175781 -49.992188 38.71875 -49.015625 C 38.269531 -48.035156 38.046875 -46.707031 38.046875 -45.03125 L 38.046875 -6.296875 C 38.046875 -4.648438 38.269531 -3.332031 38.71875 -2.34375 C 39.175781 -1.351562 39.929688 -0.722656 40.984375 -0.453125 L 40.984375 0 L 28.5 0 L 4.953125 -40.4375 L 4.953125 -38 C 4.953125 -35.570312 5.09375 -33.003906 5.375 -30.296875 C 5.664062 -27.597656 6.082031 -24.894531 6.625 -22.1875 C 7.164062 -19.488281 7.8125 -16.898438 8.5625 -14.421875 C 9.3125 -11.953125 10.132812 -9.710938 11.03125 -7.703125 C 11.9375 -5.691406 12.898438 -4.054688 13.921875 -2.796875 C 14.941406 -1.535156 16.003906 -0.753906 17.109375 -0.453125 L 17.109375 0 L 1.125 0 L 1.125 -0.453125 C 2.175781 -0.722656 2.925781 -1.351562 3.375 -2.34375 C 3.820312 -3.332031 4.046875 -4.648438 4.046875 -6.296875 L 4.046875 -45.03125 C 4.046875 -46.707031 3.820312 -48.035156 3.375 -49.015625 C 2.925781 -49.992188 2.175781 -50.617188 1.125 -50.890625 Z M 1.125 -50.890625 "/></g></g></g><g fill="#ffffff" fill-opacity="1"><g transform="translate(177.849053, 65.243367)"><g><path d="M 1.125 0 L 1.125 -0.453125 C 2.175781 -0.722656 2.925781 -1.351562 3.375 -2.34375 C 3.820312 -3.332031 4.046875 -4.648438 4.046875 -6.296875 L 4.046875 -45.03125 C 4.046875 -46.707031 3.820312 -48.035156 3.375 -49.015625 C 2.925781 -49.992188 2.175781 -50.617188 1.125 -50.890625 L 1.125 -51.328125 L 21.390625 -51.328125 L 21.390625 -50.890625 C 20.335938 -50.617188 19.585938 -49.992188 19.140625 -49.015625 C 18.691406 -48.035156 18.46875 -46.707031 18.46875 -45.03125 L 18.46875 -6.296875 C 18.46875 -4.648438 18.691406 -3.332031 19.140625 -2.34375 C 19.585938 -1.351562 20.335938 -0.722656 21.390625 -0.453125 L 21.390625 0 Z M 1.125 0 "/></g></g></g><g fill="#ffffff" fill-opacity="1"><g transform="translate(199.015311, 65.243367)"><g><path d="M 4.046875 -45.03125 C 4.046875 -46.707031 3.820312 -48.035156 3.375 -49.015625 C 2.925781 -49.992188 2.175781 -50.617188 1.125 -50.890625 L 1.125 -51.328125 L 37.234375 -51.328125 L 37.234375 -35.84375 L 36.796875 -35.84375 C 36.796875 -36.832031 36.546875 -37.957031 36.046875 -39.21875 C 35.546875 -40.476562 34.832031 -41.769531 33.90625 -43.09375 C 32.976562 -44.414062 31.882812 -45.625 30.625 -46.71875 C 29.363281 -47.8125 27.953125 -48.703125 26.390625 -49.390625 C 24.828125 -50.085938 23.160156 -50.4375 21.390625 -50.4375 L 18.46875 -50.4375 L 18.46875 -27.875 L 20.21875 -27.875 C 21.332031 -27.875 22.46875 -28.101562 23.625 -28.5625 C 24.78125 -29.03125 25.859375 -29.632812 26.859375 -30.375 C 27.867188 -31.113281 28.707031 -31.929688 29.375 -32.828125 C 30.050781 -33.722656 30.46875 -34.59375 30.625 -35.4375 L 31.078125 -35.4375 L 31.078125 -19.40625 L 30.625 -19.40625 C 30.46875 -20.28125 30.050781 -21.160156 29.375 -22.046875 C 28.707031 -22.929688 27.867188 -23.738281 26.859375 -24.46875 C 25.859375 -25.207031 24.78125 -25.804688 23.625 -26.265625 C 22.46875 -26.734375 21.332031 -26.96875 20.21875 -26.96875 L 18.46875 -26.96875 L 18.46875 -6.296875 C 18.46875 -4.648438 18.691406 -3.332031 19.140625 -2.34375 C 19.585938 -1.351562 20.335938 -0.722656 21.390625 -0.453125 L 21.390625 0 L 1.125 0 L 1.125 -0.453125 C 2.175781 -0.722656 2.925781 -1.351562 3.375 -2.34375 C 3.820312 -3.332031 4.046875 -4.648438 4.046875 -6.296875 Z M 4.046875 -45.03125 "/></g></g></g><g fill="#ffffff" fill-opacity="1"><g transform="translate(236.033969, 65.243367)"><g><path d="M 1.125 0 L 1.125 -0.453125 C 2.175781 -0.722656 2.925781 -1.351562 3.375 -2.34375 C 3.820312 -3.332031 4.046875 -4.648438 4.046875 -6.296875 L 4.046875 -45.03125 C 4.046875 -46.707031 3.820312 -48.035156 3.375 -49.015625 C 2.925781 -49.992188 2.175781 -50.617188 1.125 -50.890625 L 1.125 -51.328125 L 21.390625 -51.328125 L 21.390625 -50.890625 C 20.335938 -50.617188 19.585938 -49.992188 19.140625 -49.015625 C 18.691406 -48.035156 18.46875 -46.707031 18.46875 -45.03125 L 18.46875 -6.296875 C 18.46875 -4.648438 18.691406 -3.332031 19.140625 -2.34375 C 19.585938 -1.351562 20.335938 -0.722656 21.390625 -0.453125 L 21.390625 0 Z M 1.125 0 "/></g></g></g><g fill="#ffffff" fill-opacity="1"><g transform="translate(257.200227, 65.243367)"><g><path d="M 37.234375 0 L 1.125 0 L 1.125 -0.453125 C 2.175781 -0.722656 2.925781 -1.351562 3.375 -2.34375 C 3.820312 -3.332031 4.046875 -4.648438 4.046875 -6.296875 L 4.046875 -45.03125 C 4.046875 -46.707031 3.820312 -48.035156 3.375 -49.015625 C 2.925781 -49.992188 2.175781 -50.617188 1.125 -50.890625 L 1.125 -51.328125 L 37.234375 -51.328125 L 37.234375 -35.84375 L 36.796875 -35.84375 C 36.796875 -36.832031 36.546875 -37.957031 36.046875 -39.21875 C 35.546875 -40.476562 34.832031 -41.769531 33.90625 -43.09375 C 32.976562 -44.414062 31.882812 -45.625 30.625 -46.71875 C 29.363281 -47.8125 27.953125 -48.703125 26.390625 -49.390625 C 24.828125 -50.085938 23.160156 -50.4375 21.390625 -50.4375 L 18.46875 -50.4375 L 18.46875 -27.875 L 20.21875 -27.875 C 21.332031 -27.875 22.46875 -28.101562 23.625 -28.5625 C 24.78125 -29.03125 25.859375 -29.632812 26.859375 -30.375 C 27.867188 -31.113281 28.707031 -31.929688 29.375 -32.828125 C 30.050781 -33.722656 30.46875 -34.59375 30.625 -35.4375 L 31.078125 -35.4375 L 31.078125 -19.40625 L 30.625 -19.40625 C 30.46875 -20.28125 30.050781 -21.160156 29.375 -22.046875 C 28.707031 -22.929688 27.867188 -23.738281 26.859375 -24.46875 C 25.859375 -25.207031 24.78125 -25.804688 23.625 -26.265625 C 22.46875 -26.734375 21.332031 -26.96875 20.21875 -26.96875 L 18.46875 -26.96875 L 18.46875 -0.90625 L 21.390625 -0.90625 C 23.160156 -0.90625 24.828125 -1.25 26.390625 -1.9375 C 27.953125 -2.625 29.363281 -3.515625 30.625 -4.609375 C 31.882812 -5.710938 32.976562 -6.921875 33.90625 -8.234375 C 34.832031 -9.554688 35.546875 -10.847656 36.046875 -12.109375 C 36.546875 -13.367188 36.796875 -14.492188 36.796875 -15.484375 L 37.234375 -15.484375 Z M 37.234375 0 "/></g></g></g><g fill="#ffffff" fill-opacity="1"><g transform="translate(294.218886, 65.243367)"><g><path d="M 1.125 -50.890625 L 1.125 -51.328125 L 20.890625 -51.328125 C 25.367188 -51.328125 29.257812 -50.367188 32.5625 -48.453125 C 35.863281 -46.535156 38.414062 -43.675781 40.21875 -39.875 C 42.019531 -36.070312 42.921875 -31.335938 42.921875 -25.671875 C 42.921875 -20.023438 42.019531 -15.296875 40.21875 -11.484375 C 38.414062 -7.671875 35.863281 -4.800781 32.5625 -2.875 C 29.257812 -0.957031 25.367188 0 20.890625 0 L 1.125 0 L 1.125 -0.453125 C 2.175781 -0.722656 2.925781 -1.351562 3.375 -2.34375 C 3.820312 -3.332031 4.046875 -4.648438 4.046875 -6.296875 L 4.046875 -45.03125 C 4.046875 -46.707031 3.820312 -48.035156 3.375 -49.015625 C 2.925781 -49.992188 2.175781 -50.617188 1.125 -50.890625 Z M 18.46875 -50.125 L 18.46875 -1.21875 C 20.207031 -1.25 21.65625 -1.71875 22.8125 -2.625 C 23.96875 -3.539062 24.890625 -4.785156 25.578125 -6.359375 C 26.265625 -7.941406 26.78125 -9.757812 27.125 -11.8125 C 27.476562 -13.875 27.710938 -16.078125 27.828125 -18.421875 C 27.953125 -20.765625 28.015625 -23.164062 28.015625 -25.625 C 28.015625 -28.082031 27.953125 -30.488281 27.828125 -32.84375 C 27.710938 -35.207031 27.476562 -37.414062 27.125 -39.46875 C 26.78125 -41.519531 26.265625 -43.34375 25.578125 -44.9375 C 24.890625 -46.53125 23.96875 -47.785156 22.8125 -48.703125 C 21.65625 -49.617188 20.207031 -50.09375 18.46875 -50.125 Z M 18.46875 -50.125 "/></g></g></g><g fill="#ffffff" fill-opacity="1"><g transform="translate(337.812678, 65.243367)"><g/></g></g><g fill="#ffffff" fill-opacity="1"><g transform="translate(350.96267, 65.243367)"><g><path d="M 1.125 -51.328125 L 21.390625 -51.328125 L 21.390625 -50.890625 C 20.335938 -50.617188 19.585938 -49.992188 19.140625 -49.015625 C 18.691406 -48.035156 18.46875 -46.707031 18.46875 -45.03125 L 18.46875 -0.90625 L 21.078125 -0.90625 C 22.847656 -0.90625 24.515625 -1.25 26.078125 -1.9375 C 27.640625 -2.625 29.050781 -3.515625 30.3125 -4.609375 C 31.570312 -5.710938 32.664062 -6.921875 33.59375 -8.234375 C 34.519531 -9.554688 35.226562 -10.847656 35.71875 -12.109375 C 36.21875 -13.367188 36.46875 -14.492188 36.46875 -15.484375 L 36.921875 -15.484375 L 36.921875 0 L 1.125 0 L 1.125 -0.453125 C 2.175781 -0.722656 2.925781 -1.351562 3.375 -2.34375 C 3.820312 -3.332031 4.046875 -4.648438 4.046875 -6.296875 L 4.046875 -45.03125 C 4.046875 -46.707031 3.820312 -48.035156 3.375 -49.015625 C 2.925781 -49.992188 2.175781 -50.617188 1.125 -50.890625 Z M 1.125 -51.328125 "/></g></g></g><g fill="#ffffff" fill-opacity="1"><g transform="translate(387.666067, 65.243367)"><g><path d="M 0 0 L 0 -0.453125 C 0.570312 -0.453125 1.117188 -0.851562 1.640625 -1.65625 C 2.171875 -2.46875 2.664062 -3.503906 3.125 -4.765625 C 3.59375 -6.035156 4.019531 -7.375 4.40625 -8.78125 C 4.800781 -10.1875 5.148438 -11.492188 5.453125 -12.703125 C 6.234375 -15.734375 6.945312 -18.53125 7.59375 -21.09375 C 8.238281 -23.664062 8.851562 -26.128906 9.4375 -28.484375 C 10.019531 -30.835938 10.601562 -33.191406 11.1875 -35.546875 C 11.769531 -37.910156 12.390625 -40.378906 13.046875 -42.953125 C 13.710938 -45.535156 14.421875 -48.328125 15.171875 -51.328125 L 30.078125 -51.328125 C 30.859375 -48.328125 31.570312 -45.535156 32.21875 -42.953125 C 32.863281 -40.378906 33.484375 -37.910156 34.078125 -35.546875 C 34.679688 -33.191406 35.285156 -30.835938 35.890625 -28.484375 C 36.492188 -26.128906 37.109375 -23.664062 37.734375 -21.09375 C 38.367188 -18.53125 39.0625 -15.734375 39.8125 -12.703125 C 40.113281 -11.492188 40.457031 -10.1875 40.84375 -8.78125 C 41.226562 -7.375 41.65625 -6.035156 42.125 -4.765625 C 42.59375 -3.503906 43.085938 -2.46875 43.609375 -1.65625 C 44.140625 -0.851562 44.6875 -0.453125 45.25 -0.453125 L 45.25 0 L 22.65625 0 L 22.65625 -0.453125 C 23.757812 -1.296875 24.46875 -2.507812 24.78125 -4.09375 C 25.101562 -5.6875 25.179688 -7.492188 25.015625 -9.515625 C 24.847656 -11.546875 24.539062 -13.613281 24.09375 -15.71875 L 11.390625 -15.71875 C 11.691406 -12.238281 12.390625 -9.207031 13.484375 -6.625 C 14.578125 -4.039062 16.175781 -1.984375 18.28125 -0.453125 L 18.28125 0 Z M 15.578125 -49.796875 C 14.078125 -43.222656 12.925781 -37.144531 12.125 -31.5625 C 11.332031 -25.976562 11.070312 -20.992188 11.34375 -16.609375 L 23.90625 -16.609375 C 23.632812 -17.785156 23.359375 -18.9375 23.078125 -20.0625 C 22.796875 -21.1875 22.535156 -22.257812 22.296875 -23.28125 C 21.753906 -25.382812 21.269531 -27.257812 20.84375 -28.90625 C 20.425781 -30.5625 20.03125 -32.128906 19.65625 -33.609375 C 19.28125 -35.097656 18.894531 -36.625 18.5 -38.1875 C 18.113281 -39.75 17.6875 -41.457031 17.21875 -43.3125 C 16.757812 -45.175781 16.210938 -47.335938 15.578125 -49.796875 Z M 15.578125 -49.796875 "/></g></g></g><g fill="#ffffff" fill-opacity="1"><g transform="translate(431.575121, 65.243367)"><g><path d="M 4.046875 -45.03125 C 4.046875 -46.707031 3.820312 -48.035156 3.375 -49.015625 C 2.925781 -49.992188 2.175781 -50.617188 1.125 -50.890625 L 1.125 -51.328125 L 27.203125 -51.328125 C 30.441406 -51.328125 33.140625 -50.832031 35.296875 -49.84375 C 37.460938 -48.851562 39.078125 -47.507812 40.140625 -45.8125 C 41.210938 -44.125 41.75 -42.195312 41.75 -40.03125 C 41.75 -38.738281 41.519531 -37.476562 41.0625 -36.25 C 40.613281 -35.019531 39.867188 -33.882812 38.828125 -32.84375 C 37.796875 -31.8125 36.394531 -30.925781 34.625 -30.1875 C 32.851562 -29.457031 30.648438 -28.941406 28.015625 -28.640625 C 38.546875 -27.648438 43.8125 -22.832031 43.8125 -14.1875 C 43.8125 -12.351562 43.476562 -10.585938 42.8125 -8.890625 C 42.15625 -7.191406 41.160156 -5.675781 39.828125 -4.34375 C 38.492188 -3.007812 36.84375 -1.953125 34.875 -1.171875 C 32.90625 -0.390625 30.617188 0 28.015625 0 L 1.125 0 L 1.125 -0.453125 C 2.175781 -0.722656 2.925781 -1.351562 3.375 -2.34375 C 3.820312 -3.332031 4.046875 -4.648438 4.046875 -6.296875 Z M 18.46875 -0.90625 L 20.3125 -0.90625 C 22.164062 -0.90625 23.726562 -1.488281 25 -2.65625 C 26.28125 -3.820312 27.25 -5.429688 27.90625 -7.484375 C 28.570312 -9.546875 28.90625 -11.929688 28.90625 -14.640625 C 28.90625 -17.242188 28.597656 -19.550781 27.984375 -21.5625 C 27.367188 -23.582031 26.382812 -25.160156 25.03125 -26.296875 C 23.6875 -27.441406 21.898438 -28.015625 19.671875 -28.015625 L 18.46875 -28.015625 Z M 20.40625 -50.4375 L 18.46875 -50.4375 L 18.46875 -28.90625 L 19.671875 -28.90625 C 21.472656 -28.90625 22.898438 -29.414062 23.953125 -30.4375 C 25.003906 -31.457031 25.753906 -32.789062 26.203125 -34.4375 C 26.660156 -36.09375 26.890625 -37.867188 26.890625 -39.765625 C 26.890625 -41.566406 26.671875 -43.273438 26.234375 -44.890625 C 25.796875 -46.515625 25.101562 -47.84375 24.15625 -48.875 C 23.207031 -49.914062 21.957031 -50.4375 20.40625 -50.4375 Z M 20.40625 -50.4375 "/></g></g></g><g fill="#ffffff" fill-opacity="1"><g transform="translate(476.069609, 65.243367)"><g><path d="M 26.5625 -6.484375 C 26.5625 -8.460938 26.21875 -10.171875 25.53125 -11.609375 C 24.84375 -13.054688 23.910156 -14.316406 22.734375 -15.390625 C 21.566406 -16.472656 20.253906 -17.457031 18.796875 -18.34375 C 17.335938 -19.226562 15.835938 -20.097656 14.296875 -20.953125 C 12.753906 -21.816406 11.253906 -22.734375 9.796875 -23.703125 C 8.335938 -24.679688 7.019531 -25.816406 5.84375 -27.109375 C 4.675781 -28.398438 3.75 -29.921875 3.0625 -31.671875 C 2.375 -33.429688 2.03125 -35.515625 2.03125 -37.921875 C 2.03125 -41.191406 2.78125 -43.875 4.28125 -45.96875 C 5.78125 -48.070312 7.820312 -49.632812 10.40625 -50.65625 C 12.988281 -51.675781 15.882812 -52.1875 19.09375 -52.1875 C 20.71875 -52.1875 22.1875 -52.117188 23.5 -51.984375 C 24.820312 -51.847656 26.144531 -51.703125 27.46875 -51.546875 C 28.789062 -51.398438 30.257812 -51.328125 31.875 -51.328125 C 32.332031 -51.328125 32.820312 -51.394531 33.34375 -51.53125 C 33.875 -51.664062 34.257812 -51.882812 34.5 -52.1875 L 34.9375 -52.1875 L 34.9375 -35.84375 L 34.5 -35.84375 C 34.34375 -37.070312 33.929688 -38.390625 33.265625 -39.796875 C 32.609375 -41.210938 31.765625 -42.597656 30.734375 -43.953125 C 29.703125 -45.304688 28.539062 -46.546875 27.25 -47.671875 C 25.957031 -48.796875 24.613281 -49.6875 23.21875 -50.34375 C 21.820312 -51 20.429688 -51.328125 19.046875 -51.328125 C 17.335938 -51.328125 15.890625 -50.796875 14.703125 -49.734375 C 13.515625 -48.671875 12.921875 -47.164062 12.921875 -45.21875 C 12.921875 -43.320312 13.265625 -41.679688 13.953125 -40.296875 C 14.648438 -38.921875 15.585938 -37.710938 16.765625 -36.671875 C 17.953125 -35.640625 19.273438 -34.695312 20.734375 -33.84375 C 22.191406 -32.988281 23.707031 -32.144531 25.28125 -31.3125 C 26.863281 -30.488281 28.378906 -29.585938 29.828125 -28.609375 C 31.285156 -27.640625 32.609375 -26.53125 33.796875 -25.28125 C 34.984375 -24.039062 35.921875 -22.5625 36.609375 -20.84375 C 37.296875 -19.132812 37.640625 -17.125 37.640625 -14.8125 C 37.640625 -12.59375 37.203125 -10.53125 36.328125 -8.625 C 35.460938 -6.71875 34.242188 -5.054688 32.671875 -3.640625 C 31.097656 -2.234375 29.242188 -1.128906 27.109375 -0.328125 C 24.972656 0.460938 22.644531 0.859375 20.125 0.859375 C 17.664062 0.859375 15.4375 0.671875 13.4375 0.296875 C 11.445312 -0.078125 9.570312 -0.660156 7.8125 -1.453125 C 6.050781 -2.253906 4.300781 -3.285156 2.5625 -4.546875 L 2.5625 -21.5625 L 3.109375 -21.5625 C 3.109375 -20.9375 3.3125 -19.976562 3.71875 -18.6875 C 4.125 -17.394531 4.703125 -15.9375 5.453125 -14.3125 C 6.203125 -12.695312 7.09375 -11.0625 8.125 -9.40625 C 9.164062 -7.757812 10.316406 -6.226562 11.578125 -4.8125 C 12.835938 -3.40625 14.179688 -2.265625 15.609375 -1.390625 C 17.035156 -0.523438 18.507812 -0.09375 20.03125 -0.09375 C 21.71875 -0.09375 23.03125 -0.375 23.96875 -0.9375 C 24.914062 -1.507812 25.582031 -2.273438 25.96875 -3.234375 C 26.363281 -4.203125 26.5625 -5.285156 26.5625 -6.484375 Z M 26.5625 -6.484375 "/></g></g></g></svg>