<svg xmlns="http://www.w3.org/2000/svg" xmlns:xlink="http://www.w3.org/1999/xlink" width="700" zoomAndPan="magnify" viewBox="0 0 525 74.999997" height="100" preserveAspectRatio="xMidYMid meet" version="1.0"><defs><g/></defs><g fill="#231f20" fill-opacity="1"><g transform="translate(9.278706, 64.830441)"><g><path d="M 4.046875 -45.046875 C 4.046875 -46.722656 3.820312 -48.050781 3.375 -49.03125 C 2.925781 -50.007812 2.175781 -50.632812 1.125 -50.90625 L 1.125 -51.359375 L 27.203125 -51.359375 C 30.453125 -51.359375 33.15625 -50.859375 35.3125 -49.859375 C 37.476562 -48.867188 39.09375 -47.523438 40.15625 -45.828125 C 41.226562 -44.140625 41.765625 -42.210938 41.765625 -40.046875 C 41.765625 -38.753906 41.535156 -37.492188 41.078125 -36.265625 C 40.628906 -35.035156 39.882812 -33.898438 38.84375 -32.859375 C 37.8125 -31.828125 36.410156 -30.941406 34.640625 -30.203125 C 32.867188 -29.460938 30.660156 -28.945312 28.015625 -28.65625 C 38.554688 -27.65625 43.828125 -22.832031 43.828125 -14.1875 C 43.828125 -12.351562 43.492188 -10.585938 42.828125 -8.890625 C 42.171875 -7.203125 41.175781 -5.6875 39.84375 -4.34375 C 38.507812 -3.007812 36.859375 -1.953125 34.890625 -1.171875 C 32.921875 -0.390625 30.628906 0 28.015625 0 L 1.125 0 L 1.125 -0.453125 C 2.175781 -0.722656 2.925781 -1.351562 3.375 -2.34375 C 3.820312 -3.332031 4.046875 -4.65625 4.046875 -6.3125 Z M 18.46875 -0.90625 L 20.3125 -0.90625 C 22.175781 -0.90625 23.742188 -1.488281 25.015625 -2.65625 C 26.296875 -3.832031 27.265625 -5.445312 27.921875 -7.5 C 28.585938 -9.5625 28.921875 -11.941406 28.921875 -14.640625 C 28.921875 -17.253906 28.613281 -19.566406 28 -21.578125 C 27.382812 -23.585938 26.398438 -25.160156 25.046875 -26.296875 C 23.691406 -27.441406 21.90625 -28.015625 19.6875 -28.015625 L 18.46875 -28.015625 Z M 20.40625 -50.453125 L 18.46875 -50.453125 L 18.46875 -28.921875 L 19.6875 -28.921875 C 21.488281 -28.921875 22.914062 -29.429688 23.96875 -30.453125 C 25.019531 -31.472656 25.769531 -32.804688 26.21875 -34.453125 C 26.664062 -36.109375 26.890625 -37.882812 26.890625 -39.78125 C 26.890625 -41.582031 26.671875 -43.289062 26.234375 -44.90625 C 25.804688 -46.53125 25.117188 -47.859375 24.171875 -48.890625 C 23.222656 -49.929688 21.96875 -50.453125 20.40625 -50.453125 Z M 20.40625 -50.453125 "/></g></g></g><g fill="#231f20" fill-opacity="1"><g transform="translate(53.76362, 64.830441)"><g><path d="M 1.125 -51.359375 L 21.390625 -51.359375 L 21.390625 -50.90625 C 20.347656 -50.632812 19.597656 -50.007812 19.140625 -49.03125 C 18.691406 -48.050781 18.46875 -46.722656 18.46875 -45.046875 L 18.46875 -7.65625 C 18.46875 -7 18.484375 -6.265625 18.515625 -5.453125 C 18.546875 -4.640625 18.65625 -3.847656 18.84375 -3.078125 C 19.039062 -2.316406 19.378906 -1.6875 19.859375 -1.1875 C 20.347656 -0.695312 21.039062 -0.453125 21.9375 -0.453125 C 22.894531 -0.453125 23.617188 -0.679688 24.109375 -1.140625 C 24.609375 -1.609375 24.957031 -2.21875 25.15625 -2.96875 C 25.351562 -3.71875 25.457031 -4.503906 25.46875 -5.328125 C 25.488281 -6.160156 25.5 -6.9375 25.5 -7.65625 L 25.5 -45.046875 C 25.5 -46.722656 25.269531 -48.050781 24.8125 -49.03125 C 24.363281 -50.007812 23.613281 -50.632812 22.5625 -50.90625 L 22.5625 -51.359375 L 42.84375 -51.359375 L 42.84375 -50.90625 C 41.789062 -50.632812 41.035156 -50.007812 40.578125 -49.03125 C 40.128906 -48.050781 39.90625 -46.722656 39.90625 -45.046875 L 39.90625 -16.3125 C 39.90625 -12.707031 39.296875 -9.628906 38.078125 -7.078125 C 36.867188 -4.523438 34.945312 -2.5625 32.3125 -1.1875 C 29.6875 0.175781 26.242188 0.859375 21.984375 0.859375 C 17.742188 0.859375 14.300781 0.175781 11.65625 -1.1875 C 9.019531 -2.5625 7.09375 -4.523438 5.875 -7.078125 C 4.65625 -9.628906 4.046875 -12.707031 4.046875 -16.3125 L 4.046875 -45.046875 C 4.046875 -46.722656 3.820312 -48.050781 3.375 -49.03125 C 2.925781 -50.007812 2.175781 -50.632812 1.125 -50.90625 Z M 1.125 -51.359375 "/></g></g></g><g fill="#231f20" fill-opacity="1"><g transform="translate(96.35746, 64.830441)"><g><path d="M 1.125 -50.90625 L 1.125 -51.359375 L 15.8125 -51.359375 L 37.15625 -14.734375 L 37.15625 -17.65625 C 37.15625 -19.875 37.003906 -22.210938 36.703125 -24.671875 C 36.410156 -27.140625 35.992188 -29.601562 35.453125 -32.0625 C 34.910156 -34.53125 34.28125 -36.867188 33.5625 -39.078125 C 32.84375 -41.285156 32.039062 -43.265625 31.15625 -45.015625 C 30.269531 -46.773438 29.34375 -48.171875 28.375 -49.203125 C 27.414062 -50.242188 26.441406 -50.8125 25.453125 -50.90625 L 25.453125 -51.359375 L 41 -51.359375 L 41 -50.90625 C 39.945312 -50.632812 39.191406 -50.007812 38.734375 -49.03125 C 38.285156 -48.050781 38.0625 -46.722656 38.0625 -45.046875 L 38.0625 -6.3125 C 38.0625 -4.65625 38.285156 -3.332031 38.734375 -2.34375 C 39.191406 -1.351562 39.945312 -0.722656 41 -0.453125 L 41 0 L 28.515625 0 L 4.953125 -40.453125 L 4.953125 -38.015625 C 4.953125 -35.585938 5.09375 -33.019531 5.375 -30.3125 C 5.664062 -27.613281 6.082031 -24.910156 6.625 -22.203125 C 7.164062 -19.503906 7.8125 -16.914062 8.5625 -14.4375 C 9.3125 -11.957031 10.132812 -9.710938 11.03125 -7.703125 C 11.9375 -5.691406 12.898438 -4.054688 13.921875 -2.796875 C 14.941406 -1.535156 16.007812 -0.753906 17.125 -0.453125 L 17.125 0 L 1.125 0 L 1.125 -0.453125 C 2.175781 -0.722656 2.925781 -1.351562 3.375 -2.34375 C 3.820312 -3.332031 4.046875 -4.65625 4.046875 -6.3125 L 4.046875 -45.046875 C 4.046875 -46.722656 3.820312 -48.050781 3.375 -49.03125 C 2.925781 -50.007812 2.175781 -50.632812 1.125 -50.90625 Z M 1.125 -50.90625 "/></g></g></g><g fill="#231f20" fill-opacity="1"><g transform="translate(137.105242, 64.830441)"><g><path d="M 1.125 -50.90625 L 1.125 -51.359375 L 15.8125 -51.359375 L 37.15625 -14.734375 L 37.15625 -17.65625 C 37.15625 -19.875 37.003906 -22.210938 36.703125 -24.671875 C 36.410156 -27.140625 35.992188 -29.601562 35.453125 -32.0625 C 34.910156 -34.53125 34.28125 -36.867188 33.5625 -39.078125 C 32.84375 -41.285156 32.039062 -43.265625 31.15625 -45.015625 C 30.269531 -46.773438 29.34375 -48.171875 28.375 -49.203125 C 27.414062 -50.242188 26.441406 -50.8125 25.453125 -50.90625 L 25.453125 -51.359375 L 41 -51.359375 L 41 -50.90625 C 39.945312 -50.632812 39.191406 -50.007812 38.734375 -49.03125 C 38.285156 -48.050781 38.0625 -46.722656 38.0625 -45.046875 L 38.0625 -6.3125 C 38.0625 -4.65625 38.285156 -3.332031 38.734375 -2.34375 C 39.191406 -1.351562 39.945312 -0.722656 41 -0.453125 L 41 0 L 28.515625 0 L 4.953125 -40.453125 L 4.953125 -38.015625 C 4.953125 -35.585938 5.09375 -33.019531 5.375 -30.3125 C 5.664062 -27.613281 6.082031 -24.910156 6.625 -22.203125 C 7.164062 -19.503906 7.8125 -16.914062 8.5625 -14.4375 C 9.3125 -11.957031 10.132812 -9.710938 11.03125 -7.703125 C 11.9375 -5.691406 12.898438 -4.054688 13.921875 -2.796875 C 14.941406 -1.535156 16.007812 -0.753906 17.125 -0.453125 L 17.125 0 L 1.125 0 L 1.125 -0.453125 C 2.175781 -0.722656 2.925781 -1.351562 3.375 -2.34375 C 3.820312 -3.332031 4.046875 -4.65625 4.046875 -6.3125 L 4.046875 -45.046875 C 4.046875 -46.722656 3.820312 -48.050781 3.375 -49.03125 C 2.925781 -50.007812 2.175781 -50.632812 1.125 -50.90625 Z M 1.125 -50.90625 "/></g></g></g><g fill="#231f20" fill-opacity="1"><g transform="translate(177.853015, 64.830441)"><g><path d="M 1.125 0 L 1.125 -0.453125 C 2.175781 -0.722656 2.925781 -1.351562 3.375 -2.34375 C 3.820312 -3.332031 4.046875 -4.65625 4.046875 -6.3125 L 4.046875 -45.046875 C 4.046875 -46.722656 3.820312 -48.050781 3.375 -49.03125 C 2.925781 -50.007812 2.175781 -50.632812 1.125 -50.90625 L 1.125 -51.359375 L 21.390625 -51.359375 L 21.390625 -50.90625 C 20.347656 -50.632812 19.597656 -50.007812 19.140625 -49.03125 C 18.691406 -48.050781 18.46875 -46.722656 18.46875 -45.046875 L 18.46875 -6.3125 C 18.46875 -4.65625 18.691406 -3.332031 19.140625 -2.34375 C 19.597656 -1.351562 20.347656 -0.722656 21.390625 -0.453125 L 21.390625 0 Z M 1.125 0 "/></g></g></g><g fill="#231f20" fill-opacity="1"><g transform="translate(199.014566, 64.830441)"><g><path d="M 4.046875 -45.046875 C 4.046875 -46.722656 3.820312 -48.050781 3.375 -49.03125 C 2.925781 -50.007812 2.175781 -50.632812 1.125 -50.90625 L 1.125 -51.359375 L 37.25 -51.359375 L 37.25 -35.859375 L 36.796875 -35.859375 C 36.796875 -36.847656 36.546875 -37.972656 36.046875 -39.234375 C 35.554688 -40.492188 34.847656 -41.785156 33.921875 -43.109375 C 32.992188 -44.429688 31.894531 -45.640625 30.625 -46.734375 C 29.363281 -47.828125 27.953125 -48.71875 26.390625 -49.40625 C 24.835938 -50.101562 23.171875 -50.453125 21.390625 -50.453125 L 18.46875 -50.453125 L 18.46875 -27.890625 L 20.21875 -27.890625 C 21.332031 -27.890625 22.46875 -28.117188 23.625 -28.578125 C 24.78125 -29.046875 25.859375 -29.644531 26.859375 -30.375 C 27.867188 -31.113281 28.710938 -31.929688 29.390625 -32.828125 C 30.066406 -33.734375 30.476562 -34.609375 30.625 -35.453125 L 31.078125 -35.453125 L 31.078125 -19.421875 L 30.625 -19.421875 C 30.476562 -20.285156 30.066406 -21.160156 29.390625 -22.046875 C 28.710938 -22.929688 27.867188 -23.742188 26.859375 -24.484375 C 25.859375 -25.222656 24.78125 -25.820312 23.625 -26.28125 C 22.46875 -26.75 21.332031 -26.984375 20.21875 -26.984375 L 18.46875 -26.984375 L 18.46875 -6.3125 C 18.46875 -4.65625 18.691406 -3.332031 19.140625 -2.34375 C 19.597656 -1.351562 20.347656 -0.722656 21.390625 -0.453125 L 21.390625 0 L 1.125 0 L 1.125 -0.453125 C 2.175781 -0.722656 2.925781 -1.351562 3.375 -2.34375 C 3.820312 -3.332031 4.046875 -4.65625 4.046875 -6.3125 Z M 4.046875 -45.046875 "/></g></g></g><g fill="#231f20" fill-opacity="1"><g transform="translate(236.025201, 64.830441)"><g><path d="M 1.125 0 L 1.125 -0.453125 C 2.175781 -0.722656 2.925781 -1.351562 3.375 -2.34375 C 3.820312 -3.332031 4.046875 -4.65625 4.046875 -6.3125 L 4.046875 -45.046875 C 4.046875 -46.722656 3.820312 -48.050781 3.375 -49.03125 C 2.925781 -50.007812 2.175781 -50.632812 1.125 -50.90625 L 1.125 -51.359375 L 21.390625 -51.359375 L 21.390625 -50.90625 C 20.347656 -50.632812 19.597656 -50.007812 19.140625 -49.03125 C 18.691406 -48.050781 18.46875 -46.722656 18.46875 -45.046875 L 18.46875 -6.3125 C 18.46875 -4.65625 18.691406 -3.332031 19.140625 -2.34375 C 19.597656 -1.351562 20.347656 -0.722656 21.390625 -0.453125 L 21.390625 0 Z M 1.125 0 "/></g></g></g><g fill="#231f20" fill-opacity="1"><g transform="translate(257.186753, 64.830441)"><g><path d="M 37.25 0 L 1.125 0 L 1.125 -0.453125 C 2.175781 -0.722656 2.925781 -1.351562 3.375 -2.34375 C 3.820312 -3.332031 4.046875 -4.65625 4.046875 -6.3125 L 4.046875 -45.046875 C 4.046875 -46.722656 3.820312 -48.050781 3.375 -49.03125 C 2.925781 -50.007812 2.175781 -50.632812 1.125 -50.90625 L 1.125 -51.359375 L 37.25 -51.359375 L 37.25 -35.859375 L 36.796875 -35.859375 C 36.796875 -36.847656 36.546875 -37.972656 36.046875 -39.234375 C 35.554688 -40.492188 34.847656 -41.785156 33.921875 -43.109375 C 32.992188 -44.429688 31.894531 -45.640625 30.625 -46.734375 C 29.363281 -47.828125 27.953125 -48.71875 26.390625 -49.40625 C 24.835938 -50.101562 23.171875 -50.453125 21.390625 -50.453125 L 18.46875 -50.453125 L 18.46875 -27.890625 L 20.21875 -27.890625 C 21.332031 -27.890625 22.46875 -28.117188 23.625 -28.578125 C 24.78125 -29.046875 25.859375 -29.644531 26.859375 -30.375 C 27.867188 -31.113281 28.710938 -31.929688 29.390625 -32.828125 C 30.066406 -33.734375 30.476562 -34.609375 30.625 -35.453125 L 31.078125 -35.453125 L 31.078125 -19.421875 L 30.625 -19.421875 C 30.476562 -20.285156 30.066406 -21.160156 29.390625 -22.046875 C 28.710938 -22.929688 27.867188 -23.742188 26.859375 -24.484375 C 25.859375 -25.222656 24.78125 -25.820312 23.625 -26.28125 C 22.46875 -26.75 21.332031 -26.984375 20.21875 -26.984375 L 18.46875 -26.984375 L 18.46875 -0.90625 L 21.390625 -0.90625 C 23.171875 -0.90625 24.835938 -1.25 26.390625 -1.9375 C 27.953125 -2.625 29.363281 -3.515625 30.625 -4.609375 C 31.894531 -5.710938 32.992188 -6.921875 33.921875 -8.234375 C 34.847656 -9.554688 35.554688 -10.847656 36.046875 -12.109375 C 36.546875 -13.378906 36.796875 -14.507812 36.796875 -15.5 L 37.25 -15.5 Z M 37.25 0 "/></g></g></g><g fill="#231f20" fill-opacity="1"><g transform="translate(294.197388, 64.830441)"><g><path d="M 1.125 -50.90625 L 1.125 -51.359375 L 20.90625 -51.359375 C 25.375 -51.359375 29.257812 -50.394531 32.5625 -48.46875 C 35.875 -46.550781 38.425781 -43.691406 40.21875 -39.890625 C 42.019531 -36.085938 42.921875 -31.347656 42.921875 -25.671875 C 42.921875 -20.023438 42.019531 -15.296875 40.21875 -11.484375 C 38.425781 -7.671875 35.875 -4.800781 32.5625 -2.875 C 29.257812 -0.957031 25.375 0 20.90625 0 L 1.125 0 L 1.125 -0.453125 C 2.175781 -0.722656 2.925781 -1.351562 3.375 -2.34375 C 3.820312 -3.332031 4.046875 -4.65625 4.046875 -6.3125 L 4.046875 -45.046875 C 4.046875 -46.722656 3.820312 -48.050781 3.375 -49.03125 C 2.925781 -50.007812 2.175781 -50.632812 1.125 -50.90625 Z M 18.46875 -50.140625 L 18.46875 -1.21875 C 20.207031 -1.25 21.65625 -1.722656 22.8125 -2.640625 C 23.96875 -3.554688 24.890625 -4.800781 25.578125 -6.375 C 26.273438 -7.945312 26.796875 -9.757812 27.140625 -11.8125 C 27.484375 -13.875 27.710938 -16.078125 27.828125 -18.421875 C 27.953125 -20.765625 28.015625 -23.164062 28.015625 -25.625 C 28.015625 -28.09375 27.953125 -30.503906 27.828125 -32.859375 C 27.710938 -35.210938 27.484375 -37.414062 27.140625 -39.46875 C 26.796875 -41.53125 26.273438 -43.359375 25.578125 -44.953125 C 24.890625 -46.546875 23.96875 -47.800781 22.8125 -48.71875 C 21.65625 -49.632812 20.207031 -50.109375 18.46875 -50.140625 Z M 18.46875 -50.140625 "/></g></g></g><g fill="#231f20" fill-opacity="1"><g transform="translate(337.781799, 64.830441)"><g/></g></g><g fill="#231f20" fill-opacity="1"><g transform="translate(350.928794, 64.830441)"><g><path d="M 1.125 -51.359375 L 21.390625 -51.359375 L 21.390625 -50.90625 C 20.347656 -50.632812 19.597656 -50.007812 19.140625 -49.03125 C 18.691406 -48.050781 18.46875 -46.722656 18.46875 -45.046875 L 18.46875 -0.90625 L 21.078125 -0.90625 C 22.847656 -0.90625 24.515625 -1.25 26.078125 -1.9375 C 27.640625 -2.625 29.050781 -3.515625 30.3125 -4.609375 C 31.570312 -5.710938 32.664062 -6.921875 33.59375 -8.234375 C 34.53125 -9.554688 35.242188 -10.847656 35.734375 -12.109375 C 36.234375 -13.378906 36.484375 -14.507812 36.484375 -15.5 L 36.9375 -15.5 L 36.9375 0 L 1.125 0 L 1.125 -0.453125 C 2.175781 -0.722656 2.925781 -1.351562 3.375 -2.34375 C 3.820312 -3.332031 4.046875 -4.65625 4.046875 -6.3125 L 4.046875 -45.046875 C 4.046875 -46.722656 3.820312 -48.050781 3.375 -49.03125 C 2.925781 -50.007812 2.175781 -50.632812 1.125 -50.90625 Z M 1.125 -51.359375 "/></g></g></g><g fill="#231f20" fill-opacity="1"><g transform="translate(387.624241, 64.830441)"><g><path d="M 0 0 L 0 -0.453125 C 0.570312 -0.453125 1.117188 -0.859375 1.640625 -1.671875 C 2.171875 -2.484375 2.664062 -3.519531 3.125 -4.78125 C 3.59375 -6.039062 4.019531 -7.375 4.40625 -8.78125 C 4.800781 -10.195312 5.148438 -11.503906 5.453125 -12.703125 C 6.234375 -15.734375 6.945312 -18.53125 7.59375 -21.09375 C 8.238281 -23.664062 8.851562 -26.128906 9.4375 -28.484375 C 10.019531 -30.847656 10.601562 -33.207031 11.1875 -35.5625 C 11.78125 -37.914062 12.40625 -40.382812 13.0625 -42.96875 C 13.71875 -45.550781 14.425781 -48.347656 15.1875 -51.359375 L 30.09375 -51.359375 C 30.875 -48.347656 31.585938 -45.550781 32.234375 -42.96875 C 32.878906 -40.382812 33.5 -37.914062 34.09375 -35.5625 C 34.695312 -33.207031 35.296875 -30.847656 35.890625 -28.484375 C 36.492188 -26.128906 37.109375 -23.664062 37.734375 -21.09375 C 38.367188 -18.53125 39.066406 -15.734375 39.828125 -12.703125 C 40.117188 -11.503906 40.457031 -10.195312 40.84375 -8.78125 C 41.238281 -7.375 41.671875 -6.039062 42.140625 -4.78125 C 42.609375 -3.519531 43.101562 -2.484375 43.625 -1.671875 C 44.15625 -0.859375 44.703125 -0.453125 45.265625 -0.453125 L 45.265625 0 L 22.65625 0 L 22.65625 -0.453125 C 23.769531 -1.296875 24.484375 -2.507812 24.796875 -4.09375 C 25.109375 -5.6875 25.179688 -7.492188 25.015625 -9.515625 C 24.859375 -11.546875 24.550781 -13.613281 24.09375 -15.71875 L 11.390625 -15.71875 C 11.691406 -12.238281 12.390625 -9.207031 13.484375 -6.625 C 14.585938 -4.039062 16.1875 -1.984375 18.28125 -0.453125 L 18.28125 0 Z M 15.59375 -49.828125 C 14.082031 -43.242188 12.929688 -37.160156 12.140625 -31.578125 C 11.347656 -25.992188 11.085938 -21.007812 11.359375 -16.625 L 23.921875 -16.625 C 23.648438 -17.789062 23.367188 -18.9375 23.078125 -20.0625 C 22.796875 -21.1875 22.535156 -22.265625 22.296875 -23.296875 C 21.753906 -25.390625 21.269531 -27.257812 20.84375 -28.90625 C 20.425781 -30.5625 20.03125 -32.132812 19.65625 -33.625 C 19.28125 -35.113281 18.894531 -36.640625 18.5 -38.203125 C 18.113281 -39.765625 17.6875 -41.472656 17.21875 -43.328125 C 16.757812 -45.191406 16.21875 -47.359375 15.59375 -49.828125 Z M 15.59375 -49.828125 "/></g></g></g><g fill="#231f20" fill-opacity="1"><g transform="translate(431.523822, 64.830441)"><g><path d="M 4.046875 -45.046875 C 4.046875 -46.722656 3.820312 -48.050781 3.375 -49.03125 C 2.925781 -50.007812 2.175781 -50.632812 1.125 -50.90625 L 1.125 -51.359375 L 27.203125 -51.359375 C 30.453125 -51.359375 33.15625 -50.859375 35.3125 -49.859375 C 37.476562 -48.867188 39.09375 -47.523438 40.15625 -45.828125 C 41.226562 -44.140625 41.765625 -42.210938 41.765625 -40.046875 C 41.765625 -38.753906 41.535156 -37.492188 41.078125 -36.265625 C 40.628906 -35.035156 39.882812 -33.898438 38.84375 -32.859375 C 37.8125 -31.828125 36.410156 -30.941406 34.640625 -30.203125 C 32.867188 -29.460938 30.660156 -28.945312 28.015625 -28.65625 C 38.554688 -27.65625 43.828125 -22.832031 43.828125 -14.1875 C 43.828125 -12.351562 43.492188 -10.585938 42.828125 -8.890625 C 42.171875 -7.203125 41.175781 -5.6875 39.84375 -4.34375 C 38.507812 -3.007812 36.859375 -1.953125 34.890625 -1.171875 C 32.921875 -0.390625 30.628906 0 28.015625 0 L 1.125 0 L 1.125 -0.453125 C 2.175781 -0.722656 2.925781 -1.351562 3.375 -2.34375 C 3.820312 -3.332031 4.046875 -4.65625 4.046875 -6.3125 Z M 18.46875 -0.90625 L 20.3125 -0.90625 C 22.175781 -0.90625 23.742188 -1.488281 25.015625 -2.65625 C 26.296875 -3.832031 27.265625 -5.445312 27.921875 -7.5 C 28.585938 -9.5625 28.921875 -11.941406 28.921875 -14.640625 C 28.921875 -17.253906 28.613281 -19.566406 28 -21.578125 C 27.382812 -23.585938 26.398438 -25.160156 25.046875 -26.296875 C 23.691406 -27.441406 21.90625 -28.015625 19.6875 -28.015625 L 18.46875 -28.015625 Z M 20.40625 -50.453125 L 18.46875 -50.453125 L 18.46875 -28.921875 L 19.6875 -28.921875 C 21.488281 -28.921875 22.914062 -29.429688 23.96875 -30.453125 C 25.019531 -31.472656 25.769531 -32.804688 26.21875 -34.453125 C 26.664062 -36.109375 26.890625 -37.882812 26.890625 -39.78125 C 26.890625 -41.582031 26.671875 -43.289062 26.234375 -44.90625 C 25.804688 -46.53125 25.117188 -47.859375 24.171875 -48.890625 C 23.222656 -49.929688 21.96875 -50.453125 20.40625 -50.453125 Z M 20.40625 -50.453125 "/></g></g></g><g fill="#231f20" fill-opacity="1"><g transform="translate(476.008749, 64.830441)"><g><path d="M 26.578125 -6.484375 C 26.578125 -8.460938 26.226562 -10.171875 25.53125 -11.609375 C 24.84375 -13.054688 23.910156 -14.320312 22.734375 -15.40625 C 21.566406 -16.488281 20.253906 -17.472656 18.796875 -18.359375 C 17.347656 -19.242188 15.847656 -20.113281 14.296875 -20.96875 C 12.753906 -21.820312 11.253906 -22.738281 9.796875 -23.71875 C 8.335938 -24.695312 7.019531 -25.832031 5.84375 -27.125 C 4.675781 -28.414062 3.75 -29.9375 3.0625 -31.6875 C 2.375 -33.445312 2.03125 -35.523438 2.03125 -37.921875 C 2.03125 -41.203125 2.78125 -43.890625 4.28125 -45.984375 C 5.78125 -48.085938 7.820312 -49.648438 10.40625 -50.671875 C 12.988281 -51.691406 15.882812 -52.203125 19.09375 -52.203125 C 20.71875 -52.203125 22.191406 -52.132812 23.515625 -52 C 24.835938 -51.863281 26.15625 -51.722656 27.46875 -51.578125 C 28.789062 -51.429688 30.265625 -51.359375 31.890625 -51.359375 C 32.335938 -51.359375 32.820312 -51.425781 33.34375 -51.5625 C 33.875 -51.695312 34.257812 -51.910156 34.5 -52.203125 L 34.953125 -52.203125 L 34.953125 -35.859375 L 34.5 -35.859375 C 34.351562 -37.085938 33.945312 -38.40625 33.28125 -39.8125 C 32.625 -41.226562 31.773438 -42.613281 30.734375 -43.96875 C 29.703125 -45.320312 28.539062 -46.5625 27.25 -47.6875 C 25.957031 -48.8125 24.613281 -49.703125 23.21875 -50.359375 C 21.820312 -51.023438 20.4375 -51.359375 19.0625 -51.359375 C 17.34375 -51.359375 15.890625 -50.820312 14.703125 -49.75 C 13.515625 -48.6875 12.921875 -47.179688 12.921875 -45.234375 C 12.921875 -43.335938 13.265625 -41.695312 13.953125 -40.3125 C 14.648438 -38.9375 15.59375 -37.726562 16.78125 -36.6875 C 17.96875 -35.65625 19.285156 -34.707031 20.734375 -33.84375 C 22.191406 -32.988281 23.707031 -32.148438 25.28125 -31.328125 C 26.863281 -30.503906 28.382812 -29.601562 29.84375 -28.625 C 31.300781 -27.644531 32.625 -26.53125 33.8125 -25.28125 C 35 -24.039062 35.9375 -22.5625 36.625 -20.84375 C 37.3125 -19.132812 37.65625 -17.128906 37.65625 -14.828125 C 37.65625 -12.597656 37.21875 -10.53125 36.34375 -8.625 C 35.476562 -6.71875 34.253906 -5.054688 32.671875 -3.640625 C 31.097656 -2.234375 29.242188 -1.128906 27.109375 -0.328125 C 24.984375 0.460938 22.660156 0.859375 20.140625 0.859375 C 17.671875 0.859375 15.4375 0.671875 13.4375 0.296875 C 11.445312 -0.078125 9.570312 -0.660156 7.8125 -1.453125 C 6.0625 -2.253906 4.3125 -3.285156 2.5625 -4.546875 L 2.5625 -21.578125 L 3.109375 -21.578125 C 3.109375 -20.941406 3.3125 -19.976562 3.71875 -18.6875 C 4.125 -17.394531 4.703125 -15.9375 5.453125 -14.3125 C 6.203125 -12.695312 7.09375 -11.0625 8.125 -9.40625 C 9.164062 -7.757812 10.316406 -6.226562 11.578125 -4.8125 C 12.835938 -3.40625 14.179688 -2.265625 15.609375 -1.390625 C 17.035156 -0.523438 18.515625 -0.09375 20.046875 -0.09375 C 21.722656 -0.09375 23.035156 -0.375 23.984375 -0.9375 C 24.929688 -1.507812 25.597656 -2.273438 25.984375 -3.234375 C 26.378906 -4.203125 26.578125 -5.285156 26.578125 -6.484375 Z M 26.578125 -6.484375 "/></g></g></g></svg>