<svg xmlns="http://www.w3.org/2000/svg" xmlns:xlink="http://www.w3.org/1999/xlink" width="700" zoomAndPan="magnify" viewBox="0 0 525 74.999997" height="100" preserveAspectRatio="xMidYMid meet" version="1.0"><defs><g/><clipPath id="05dacab616"><path d="M 341.277344 43 L 385 43 L 385 45 L 341.277344 45 Z M 341.277344 43 " clip-rule="nonzero"/></clipPath><clipPath id="a989864bb5"><path d="M 341.277344 49 L 385 49 L 385 51 L 341.277344 51 Z M 341.277344 49 " clip-rule="nonzero"/></clipPath><clipPath id="16cd08d6b5"><path d="M 341.277344 55 L 367 55 L 367 57 L 341.277344 57 Z M 341.277344 55 " clip-rule="nonzero"/></clipPath><clipPath id="58e9adbd98"><path d="M 419 60 L 423 60 L 423 63.976562 L 419 63.976562 Z M 419 60 " clip-rule="nonzero"/></clipPath><clipPath id="047b0ba074"><path d="M 425 54 L 428.277344 54 L 428.277344 58 L 425 58 Z M 425 54 " clip-rule="nonzero"/></clipPath><clipPath id="8365e25eb4"><path d="M 402 36.226562 L 406 36.226562 L 406 40 L 402 40 Z M 402 36.226562 " clip-rule="nonzero"/></clipPath><clipPath id="fe5e60cd66"><path d="M 384 60 L 388 60 L 388 63.976562 L 384 63.976562 Z M 384 60 " clip-rule="nonzero"/></clipPath><clipPath id="98bb9fa73d"><path d="M 96.375 20.753906 L 459.796875 20.753906 L 459.796875 51.695312 L 96.375 51.695312 Z M 96.375 20.753906 " clip-rule="nonzero"/></clipPath></defs><g fill="#000000" fill-opacity="1"><g transform="translate(33.895518, 63.663256)"><g><path d="M 2.96875 0 L 2.96875 -0.84375 L 4.765625 -0.84375 C 6.742188 -0.84375 8.285156 -1.296875 9.390625 -2.203125 C 10.492188 -3.109375 11.046875 -4.640625 11.046875 -6.796875 L 11.046875 -54.140625 C 11.046875 -56.128906 10.492188 -57.578125 9.390625 -58.484375 C 8.285156 -59.390625 6.742188 -59.84375 4.765625 -59.84375 L 2.96875 -59.84375 L 2.96875 -60.6875 L 26.34375 -60.6875 C 41.363281 -60.6875 48.875 -55.8125 48.875 -46.0625 C 48.875 -37.625 43.234375 -32.976562 31.953125 -32.125 L 31.953125 -31.953125 C 38.703125 -31.734375 43.632812 -30.234375 46.75 -27.453125 C 49.863281 -24.679688 51.421875 -20.96875 51.421875 -16.3125 C 51.421875 -5.4375 43.914062 0 28.90625 0 Z M 20.90625 -32.21875 L 26.09375 -32.21875 C 30.507812 -32.21875 33.648438 -33.25 35.515625 -35.3125 C 37.390625 -37.382812 38.328125 -40.828125 38.328125 -45.640625 C 38.328125 -50.796875 37.378906 -54.453125 35.484375 -56.609375 C 33.585938 -58.765625 30.398438 -59.84375 25.921875 -59.84375 L 20.90625 -59.84375 Z M 20.90625 -0.84375 L 28.46875 -0.84375 C 32.945312 -0.84375 36.132812 -2.03125 38.03125 -4.40625 C 39.9375 -6.789062 40.890625 -10.734375 40.890625 -16.234375 C 40.890625 -21.671875 39.953125 -25.550781 38.078125 -27.875 C 36.210938 -30.195312 33.066406 -31.359375 28.640625 -31.359375 L 20.90625 -31.359375 Z M 20.90625 -0.84375 "/></g></g></g><g fill="#000000" fill-opacity="1"><g transform="translate(46.921336, 71.111971)"><g><path d="M 2.96875 0 L 2.96875 -0.84375 L 4.765625 -0.84375 C 6.742188 -0.84375 8.285156 -1.296875 9.390625 -2.203125 C 10.492188 -3.109375 11.046875 -4.640625 11.046875 -6.796875 L 11.046875 -54.140625 C 11.046875 -56.179688 10.492188 -57.640625 9.390625 -58.515625 C 8.285156 -59.398438 6.742188 -59.84375 4.765625 -59.84375 L 2.96875 -59.84375 L 2.96875 -60.6875 L 28.984375 -60.6875 L 28.984375 -59.84375 L 27.203125 -59.84375 C 25.210938 -59.84375 23.679688 -59.390625 22.609375 -58.484375 C 21.535156 -57.578125 21 -56.070312 21 -53.96875 L 21 -0.84375 L 35.78125 -0.84375 C 38.894531 -0.84375 41.382812 -1.296875 43.25 -2.203125 C 45.125 -3.109375 46.53125 -4.597656 47.46875 -6.671875 C 48.40625 -8.742188 48.988281 -11.59375 49.21875 -15.21875 L 49.46875 -18.4375 L 50.3125 -18.4375 L 49.71875 0 Z M 2.96875 0 "/></g></g></g><path fill="#000000" d="M 402.441406 38.078125 L 384.179688 38.078125 C 384.019531 38.078125 383.886719 37.949219 383.886719 37.785156 C 383.886719 37.625 384.019531 37.496094 384.179688 37.496094 L 402.441406 37.496094 C 402.605469 37.496094 402.734375 37.625 402.734375 37.785156 C 402.734375 37.949219 402.605469 38.078125 402.441406 38.078125 Z M 402.441406 38.078125 " fill-opacity="1" fill-rule="nonzero"/><path fill="#000000" d="M 384.386719 37.992188 L 378.296875 44.109375 C 378.183594 44.222656 378 44.222656 377.886719 44.109375 C 377.773438 43.996094 377.773438 43.808594 377.886719 43.695312 L 383.972656 37.578125 C 384.085938 37.464844 384.269531 37.464844 384.386719 37.578125 C 384.5 37.695312 384.5 37.878906 384.386719 37.992188 Z M 384.386719 37.992188 " fill-opacity="1" fill-rule="nonzero"/><g clip-path="url(#05dacab616)"><path fill="#000000" d="M 341.5625 43.609375 L 384.179688 43.609375 C 384.339844 43.609375 384.46875 43.742188 384.46875 43.902344 C 384.46875 44.0625 384.339844 44.195312 384.179688 44.195312 L 341.5625 44.195312 C 341.402344 44.195312 341.273438 44.0625 341.273438 43.902344 C 341.273438 43.742188 341.402344 43.609375 341.5625 43.609375 Z M 341.5625 43.609375 " fill-opacity="1" fill-rule="nonzero"/></g><path fill="#000000" d="M 384.386719 43.695312 L 396.5625 55.929688 C 396.675781 56.042969 396.675781 56.226562 396.5625 56.34375 C 396.445312 56.457031 396.261719 56.457031 396.148438 56.34375 L 383.972656 44.109375 C 383.859375 43.996094 383.859375 43.808594 383.972656 43.695312 C 384.085938 43.582031 384.269531 43.582031 384.386719 43.695312 Z M 384.386719 43.695312 " fill-opacity="1" fill-rule="nonzero"/><path fill="#000000" d="M 396.355469 55.84375 L 408.53125 55.84375 C 408.691406 55.84375 408.820312 55.972656 408.820312 56.136719 C 408.820312 56.296875 408.691406 56.425781 408.53125 56.425781 L 396.355469 56.425781 C 396.195312 56.425781 396.0625 56.296875 396.0625 56.136719 C 396.0625 55.972656 396.195312 55.84375 396.355469 55.84375 Z M 396.355469 55.84375 " fill-opacity="1" fill-rule="nonzero"/><path fill="#000000" d="M 390.0625 49.8125 L 396.148438 43.695312 C 396.261719 43.582031 396.445312 43.582031 396.5625 43.695312 C 396.675781 43.808594 396.675781 43.996094 396.5625 44.109375 L 390.472656 50.226562 C 390.359375 50.339844 390.175781 50.339844 390.0625 50.226562 C 389.949219 50.113281 389.949219 49.925781 390.0625 49.8125 Z M 390.0625 49.8125 " fill-opacity="1" fill-rule="nonzero"/><path fill="#000000" d="M 396.355469 43.609375 L 414.617188 43.609375 C 414.78125 43.609375 414.910156 43.742188 414.910156 43.902344 C 414.910156 44.0625 414.78125 44.195312 414.617188 44.195312 L 396.355469 44.195312 C 396.195312 44.195312 396.0625 44.0625 396.0625 43.902344 C 396.0625 43.742188 396.195312 43.609375 396.355469 43.609375 Z M 396.355469 43.609375 " fill-opacity="1" fill-rule="nonzero"/><g clip-path="url(#a989864bb5)"><path fill="#000000" d="M 341.5625 49.726562 L 384.179688 49.726562 C 384.339844 49.726562 384.46875 49.859375 384.46875 50.019531 C 384.46875 50.179688 384.339844 50.3125 384.179688 50.3125 L 341.5625 50.3125 C 341.402344 50.3125 341.273438 50.179688 341.273438 50.019531 C 341.273438 49.859375 341.402344 49.726562 341.5625 49.726562 Z M 341.5625 49.726562 " fill-opacity="1" fill-rule="nonzero"/></g><path fill="#000000" d="M 384.386719 49.8125 L 396.5625 62.042969 C 396.675781 62.160156 396.675781 62.34375 396.5625 62.457031 C 396.445312 62.574219 396.261719 62.574219 396.148438 62.457031 L 383.972656 50.226562 C 383.859375 50.113281 383.859375 49.925781 383.972656 49.8125 C 384.085938 49.699219 384.269531 49.699219 384.386719 49.8125 Z M 384.386719 49.8125 " fill-opacity="1" fill-rule="nonzero"/><path fill="#000000" d="M 396.355469 61.957031 L 420.707031 61.957031 C 420.867188 61.957031 420.996094 62.089844 420.996094 62.25 C 420.996094 62.414062 420.867188 62.542969 420.707031 62.542969 L 396.355469 62.542969 C 396.195312 62.542969 396.0625 62.414062 396.0625 62.25 C 396.0625 62.089844 396.195312 61.957031 396.355469 61.957031 Z M 396.355469 61.957031 " fill-opacity="1" fill-rule="nonzero"/><path fill="#000000" d="M 408.324219 62.042969 L 414.414062 55.929688 C 414.527344 55.8125 414.710938 55.8125 414.824219 55.929688 C 414.9375 56.042969 414.9375 56.226562 414.824219 56.34375 L 408.738281 62.457031 C 408.621094 62.574219 408.4375 62.574219 408.324219 62.457031 C 408.210938 62.34375 408.210938 62.160156 408.324219 62.042969 Z M 408.324219 62.042969 " fill-opacity="1" fill-rule="nonzero"/><path fill="#000000" d="M 414.617188 55.84375 L 426.792969 55.84375 C 426.957031 55.84375 427.085938 55.972656 427.085938 56.136719 C 427.085938 56.296875 426.957031 56.429688 426.792969 56.429688 L 414.617188 56.425781 C 414.457031 56.425781 414.328125 56.296875 414.328125 56.136719 C 414.328125 55.972656 414.457031 55.84375 414.617188 55.84375 Z M 414.617188 55.84375 " fill-opacity="1" fill-rule="nonzero"/><g clip-path="url(#16cd08d6b5)"><path fill="#000000" d="M 341.5625 55.84375 L 365.914062 55.84375 C 366.074219 55.84375 366.207031 55.972656 366.207031 56.136719 C 366.207031 56.296875 366.074219 56.425781 365.914062 56.425781 L 341.5625 56.425781 C 341.402344 56.425781 341.273438 56.296875 341.273438 56.136719 C 341.273438 55.972656 341.402344 55.84375 341.5625 55.84375 Z M 341.5625 55.84375 " fill-opacity="1" fill-rule="nonzero"/></g><path fill="#000000" d="M 366.121094 55.929688 L 372.210938 62.042969 C 372.324219 62.160156 372.324219 62.34375 372.210938 62.457031 C 372.09375 62.574219 371.910156 62.574219 371.796875 62.457031 L 365.710938 56.34375 C 365.597656 56.226562 365.597656 56.042969 365.710938 55.929688 C 365.824219 55.8125 366.007812 55.8125 366.121094 55.929688 Z M 366.121094 55.929688 " fill-opacity="1" fill-rule="nonzero"/><path fill="#000000" d="M 372.003906 61.957031 L 384.179688 61.957031 C 384.339844 61.957031 384.46875 62.089844 384.46875 62.25 C 384.46875 62.414062 384.339844 62.542969 384.179688 62.542969 L 372.003906 62.542969 C 371.84375 62.542969 371.710938 62.414062 371.710938 62.25 C 371.710938 62.089844 371.84375 61.957031 372.003906 61.957031 Z M 372.003906 61.957031 " fill-opacity="1" fill-rule="nonzero"/><path fill="#000000" d="M 416.046875 43.992188 C 416 44.785156 415.320312 45.386719 414.53125 45.335938 C 413.742188 45.289062 413.140625 44.605469 413.191406 43.816406 C 413.238281 43.023438 413.917969 42.417969 414.707031 42.46875 C 415.496094 42.515625 416.09375 43.199219 416.046875 43.992188 Z M 416.046875 43.992188 " fill-opacity="1" fill-rule="nonzero"/><path fill="#000000" d="M 409.957031 56.222656 C 409.910156 57.015625 409.230469 57.617188 408.441406 57.570312 C 407.652344 57.519531 407.054688 56.839844 407.101562 56.046875 C 407.152344 55.253906 407.828125 54.652344 408.617188 54.699219 C 409.40625 54.75 410.007812 55.429688 409.957031 56.222656 Z M 409.957031 56.222656 " fill-opacity="1" fill-rule="nonzero"/><g clip-path="url(#58e9adbd98)"><path fill="#000000" d="M 422.132812 62.339844 C 422.085938 63.132812 421.40625 63.734375 420.617188 63.6875 C 419.828125 63.636719 419.230469 62.957031 419.277344 62.164062 C 419.328125 61.371094 420.003906 60.769531 420.792969 60.816406 C 421.582031 60.867188 422.183594 61.546875 422.132812 62.339844 Z M 422.132812 62.339844 " fill-opacity="1" fill-rule="nonzero"/></g><g clip-path="url(#047b0ba074)"><path fill="#000000" d="M 428.222656 56.222656 C 428.175781 57.015625 427.496094 57.617188 426.707031 57.570312 C 425.917969 57.519531 425.316406 56.839844 425.367188 56.046875 C 425.414062 55.253906 426.09375 54.652344 426.882812 54.699219 C 427.671875 54.75 428.269531 55.429688 428.222656 56.222656 Z M 428.222656 56.222656 " fill-opacity="1" fill-rule="nonzero"/></g><g clip-path="url(#8365e25eb4)"><path fill="#000000" d="M 405.511719 37.96875 C 405.449219 38.824219 404.710938 39.46875 403.863281 39.40625 C 403.011719 39.347656 402.371094 38.605469 402.433594 37.75 C 402.492188 36.898438 403.230469 36.253906 404.082031 36.316406 C 404.929688 36.375 405.570312 37.117188 405.511719 37.96875 M 404.898438 37.925781 C 404.933594 37.414062 404.550781 36.96875 404.039062 36.929688 C 403.527344 36.894531 403.082031 37.28125 403.046875 37.796875 C 403.007812 38.308594 403.394531 38.753906 403.90625 38.792969 C 404.417969 38.828125 404.863281 38.441406 404.898438 37.925781 Z M 404.898438 37.925781 " fill-opacity="1" fill-rule="nonzero"/></g><g clip-path="url(#fe5e60cd66)"><path fill="#000000" d="M 387.191406 62.4375 C 387.128906 63.292969 386.390625 63.933594 385.542969 63.875 C 384.691406 63.8125 384.050781 63.074219 384.113281 62.21875 C 384.171875 61.363281 384.910156 60.722656 385.761719 60.78125 C 386.609375 60.84375 387.25 61.585938 387.191406 62.4375 M 386.578125 62.394531 C 386.613281 61.878906 386.230469 61.433594 385.71875 61.398438 C 385.207031 61.359375 384.761719 61.75 384.726562 62.261719 C 384.6875 62.777344 385.074219 63.222656 385.585938 63.257812 C 386.097656 63.296875 386.542969 62.910156 386.578125 62.394531 Z M 386.578125 62.394531 " fill-opacity="1" fill-rule="nonzero"/></g><g clip-path="url(#98bb9fa73d)"><path fill="#000000" d="M 96.375 20.753906 L 459.835938 20.753906 L 459.835938 51.695312 L 96.375 51.695312 Z M 96.375 20.753906 " fill-opacity="1" fill-rule="nonzero"/></g><g fill="#ffffff" fill-opacity="1"><g transform="translate(128.094529, 41.614442)"><g><path d="M 6.578125 -3.375 C 6.578125 -3.75 6.4375 -4.070312 6.15625 -4.34375 C 5.882812 -4.625 5.554688 -4.765625 5.171875 -4.765625 L 3.5625 -4.765625 L 3.5625 -1.984375 L 5.171875 -1.984375 C 5.554688 -1.984375 5.882812 -2.117188 6.15625 -2.390625 C 6.4375 -2.660156 6.578125 -2.988281 6.578125 -3.375 Z M 5.78125 -8.1875 C 5.78125 -8.5625 5.644531 -8.878906 5.375 -9.140625 C 5.113281 -9.398438 4.800781 -9.53125 4.4375 -9.53125 L 3.5625 -9.53125 L 3.5625 -6.84375 L 4.4375 -6.84375 C 4.800781 -6.84375 5.113281 -6.972656 5.375 -7.234375 C 5.644531 -7.503906 5.78125 -7.820312 5.78125 -8.1875 Z M 9.171875 -3.3125 C 9.171875 -2.3125 8.863281 -1.507812 8.25 -0.90625 C 7.644531 -0.300781 6.785156 0 5.671875 0 L 1.015625 0 L 1.015625 -11.53125 L 4.984375 -11.53125 C 5.640625 -11.53125 6.207031 -11.398438 6.6875 -11.140625 C 7.164062 -10.878906 7.535156 -10.53125 7.796875 -10.09375 C 8.066406 -9.65625 8.203125 -9.171875 8.203125 -8.640625 C 8.203125 -8.054688 8.078125 -7.550781 7.828125 -7.125 C 7.585938 -6.707031 7.253906 -6.398438 6.828125 -6.203125 C 7.472656 -6.054688 8.023438 -5.726562 8.484375 -5.21875 C 8.941406 -4.71875 9.171875 -4.082031 9.171875 -3.3125 Z M 9.171875 -3.3125 "/></g></g></g><g fill="#ffffff" fill-opacity="1"><g transform="translate(150.454053, 41.614442)"><g><path d="M 7.75 -11.53125 L 10.296875 -11.53125 L 10.296875 -4.5 C 10.296875 -2.957031 9.875 -1.789062 9.03125 -1 C 8.195312 -0.21875 7.03125 0.171875 5.53125 0.171875 C 4.019531 0.171875 2.847656 -0.21875 2.015625 -1 C 1.179688 -1.789062 0.765625 -2.957031 0.765625 -4.5 L 0.765625 -11.53125 L 3.3125 -11.53125 L 3.3125 -4.859375 C 3.3125 -4.066406 3.460938 -3.453125 3.765625 -3.015625 C 4.078125 -2.585938 4.664062 -2.375 5.53125 -2.375 C 6.394531 -2.375 6.976562 -2.585938 7.28125 -3.015625 C 7.59375 -3.453125 7.75 -4.066406 7.75 -4.859375 Z M 7.75 -11.53125 "/></g></g></g><g fill="#ffffff" fill-opacity="1"><g transform="translate(174.524806, 41.614442)"><g><path d="M 10.0625 0 L 7.53125 0 L 3.5625 -7.1875 L 3.5625 0 L 1.015625 0 L 1.015625 -11.53125 L 3.5625 -11.53125 L 7.53125 -4.34375 L 7.53125 -11.53125 L 10.0625 -11.53125 Z M 10.0625 0 "/></g></g></g><g fill="#ffffff" fill-opacity="1"><g transform="translate(198.62944, 41.614442)"><g><path d="M 10.0625 0 L 7.53125 0 L 3.5625 -7.1875 L 3.5625 0 L 1.015625 0 L 1.015625 -11.53125 L 3.5625 -11.53125 L 7.53125 -4.34375 L 7.53125 -11.53125 L 10.0625 -11.53125 Z M 10.0625 0 "/></g></g></g><g fill="#ffffff" fill-opacity="1"><g transform="translate(222.734075, 41.614442)"><g><path d="M 4.390625 0 L 4.390625 -5.515625 L 0.140625 -11.53125 L 3.171875 -11.53125 L 5.65625 -7.546875 L 8.15625 -11.53125 L 11.1875 -11.53125 L 6.9375 -5.515625 L 6.9375 0 Z M 4.390625 0 "/></g></g></g><g fill="#ffffff" fill-opacity="1"><g transform="translate(247.075908, 41.614442)"><g><path d="M 7.53125 -4.625 L 3.5625 -4.625 L 3.5625 0 L 1.015625 0 L 1.015625 -11.53125 L 7.703125 -11.53125 L 7.703125 -9.21875 L 3.5625 -9.21875 L 3.5625 -6.9375 L 7.53125 -6.9375 Z M 7.53125 -4.625 "/></g></g></g><g fill="#ffffff" fill-opacity="1"><g transform="translate(268.639111, 41.614442)"><g><path d="M 3.5625 0 L 1.015625 0 L 1.015625 -11.53125 L 3.5625 -11.53125 Z M 3.5625 0 "/></g></g></g><g fill="#ffffff" fill-opacity="1"><g transform="translate(286.237686, 41.614442)"><g><path d="M 7.703125 -2.3125 L 7.703125 0 L 1.015625 0 L 1.015625 -11.53125 L 7.703125 -11.53125 L 7.703125 -9.21875 L 3.5625 -9.21875 L 3.5625 -6.9375 L 7.53125 -6.9375 L 7.53125 -4.625 L 3.5625 -4.625 L 3.5625 -2.3125 Z M 7.703125 -2.3125 "/></g></g></g><g fill="#ffffff" fill-opacity="1"><g transform="translate(307.970316, 41.614442)"><g><path d="M 3.53125 -2.34375 L 4.296875 -2.34375 C 4.941406 -2.34375 5.507812 -2.492188 6 -2.796875 C 6.5 -3.097656 6.882812 -3.507812 7.15625 -4.03125 C 7.4375 -4.550781 7.578125 -5.128906 7.578125 -5.765625 C 7.578125 -6.410156 7.4375 -6.988281 7.15625 -7.5 C 6.882812 -8.007812 6.5 -8.414062 6 -8.71875 C 5.507812 -9.019531 4.941406 -9.171875 4.296875 -9.171875 L 3.53125 -9.171875 Z M 1.015625 -11.53125 L 4.4375 -11.53125 C 5.25 -11.53125 6.003906 -11.378906 6.703125 -11.078125 C 7.398438 -10.785156 8.007812 -10.378906 8.53125 -9.859375 C 9.050781 -9.347656 9.453125 -8.738281 9.734375 -8.03125 C 10.023438 -7.332031 10.171875 -6.578125 10.171875 -5.765625 C 10.171875 -4.953125 10.023438 -4.191406 9.734375 -3.484375 C 9.453125 -2.785156 9.050781 -2.175781 8.53125 -1.65625 C 8.019531 -1.132812 7.410156 -0.726562 6.703125 -0.4375 C 6.003906 -0.144531 5.25 0 4.4375 0 L 1.015625 0 Z M 1.015625 -11.53125 "/></g></g></g><g fill="#ffffff" fill-opacity="1"><g transform="translate(331.753037, 41.614442)"><g/></g></g><g fill="#ffffff" fill-opacity="1"><g transform="translate(349.012749, 41.614442)"><g><path d="M 1.015625 0 L 1.015625 -11.53125 L 3.5625 -11.53125 L 3.5625 -2.3125 L 7.703125 -2.3125 L 7.703125 0 Z M 1.015625 0 "/></g></g></g><g fill="#ffffff" fill-opacity="1"><g transform="translate(370.321812, 41.614442)"><g><path d="M 7.296875 -4.40625 L 5.828125 -8.515625 L 4.375 -4.40625 Z M 11.59375 0 L 8.859375 0 L 8.03125 -2.328125 L 3.640625 -2.328125 L 2.8125 0 L 0.078125 0 L 4.765625 -11.53125 L 6.921875 -11.53125 Z M 11.59375 0 "/></g></g></g><g fill="#ffffff" fill-opacity="1"><g transform="translate(395.01945, 41.614442)"><g><path d="M 6.578125 -3.375 C 6.578125 -3.75 6.4375 -4.070312 6.15625 -4.34375 C 5.882812 -4.625 5.554688 -4.765625 5.171875 -4.765625 L 3.5625 -4.765625 L 3.5625 -1.984375 L 5.171875 -1.984375 C 5.554688 -1.984375 5.882812 -2.117188 6.15625 -2.390625 C 6.4375 -2.660156 6.578125 -2.988281 6.578125 -3.375 Z M 5.78125 -8.1875 C 5.78125 -8.5625 5.644531 -8.878906 5.375 -9.140625 C 5.113281 -9.398438 4.800781 -9.53125 4.4375 -9.53125 L 3.5625 -9.53125 L 3.5625 -6.84375 L 4.4375 -6.84375 C 4.800781 -6.84375 5.113281 -6.972656 5.375 -7.234375 C 5.644531 -7.503906 5.78125 -7.820312 5.78125 -8.1875 Z M 9.171875 -3.3125 C 9.171875 -2.3125 8.863281 -1.507812 8.25 -0.90625 C 7.644531 -0.300781 6.785156 0 5.671875 0 L 1.015625 0 L 1.015625 -11.53125 L 4.984375 -11.53125 C 5.640625 -11.53125 6.207031 -11.398438 6.6875 -11.140625 C 7.164062 -10.878906 7.535156 -10.53125 7.796875 -10.09375 C 8.066406 -9.65625 8.203125 -9.171875 8.203125 -8.640625 C 8.203125 -8.054688 8.078125 -7.550781 7.828125 -7.125 C 7.585938 -6.707031 7.253906 -6.398438 6.828125 -6.203125 C 7.472656 -6.054688 8.023438 -5.726562 8.484375 -5.21875 C 8.941406 -4.71875 9.171875 -4.082031 9.171875 -3.3125 Z M 9.171875 -3.3125 "/></g></g></g><g fill="#ffffff" fill-opacity="1"><g transform="translate(417.378975, 41.614442)"><g><path d="M 5.5 -1.796875 C 5.769531 -1.796875 6.0625 -1.835938 6.375 -1.921875 C 6.6875 -2.003906 6.957031 -2.144531 7.1875 -2.34375 C 7.425781 -2.539062 7.546875 -2.8125 7.546875 -3.15625 C 7.546875 -3.46875 7.421875 -3.71875 7.171875 -3.90625 C 6.929688 -4.101562 6.613281 -4.265625 6.21875 -4.390625 C 5.820312 -4.515625 5.390625 -4.628906 4.921875 -4.734375 C 4.453125 -4.847656 3.976562 -4.976562 3.5 -5.125 C 3.03125 -5.28125 2.597656 -5.484375 2.203125 -5.734375 C 1.804688 -5.984375 1.484375 -6.304688 1.234375 -6.703125 C 0.992188 -7.097656 0.875 -7.597656 0.875 -8.203125 C 0.875 -8.804688 1 -9.320312 1.25 -9.75 C 1.5 -10.1875 1.828125 -10.550781 2.234375 -10.84375 C 2.648438 -11.132812 3.113281 -11.347656 3.625 -11.484375 C 4.144531 -11.628906 4.664062 -11.703125 5.1875 -11.703125 C 5.976562 -11.703125 6.71875 -11.578125 7.40625 -11.328125 C 8.09375 -11.078125 8.65625 -10.679688 9.09375 -10.140625 C 9.53125 -9.609375 9.757812 -8.898438 9.78125 -8.015625 L 7.328125 -8.015625 C 7.253906 -8.617188 7.039062 -9.035156 6.6875 -9.265625 C 6.34375 -9.492188 5.851562 -9.609375 5.21875 -9.609375 C 4.976562 -9.609375 4.722656 -9.566406 4.453125 -9.484375 C 4.191406 -9.410156 3.96875 -9.285156 3.78125 -9.109375 C 3.601562 -8.929688 3.515625 -8.695312 3.515625 -8.40625 C 3.515625 -8.113281 3.632812 -7.878906 3.875 -7.703125 C 4.113281 -7.535156 4.429688 -7.394531 4.828125 -7.28125 C 5.222656 -7.175781 5.65625 -7.070312 6.125 -6.96875 C 6.601562 -6.863281 7.078125 -6.738281 7.546875 -6.59375 C 8.015625 -6.445312 8.445312 -6.242188 8.84375 -5.984375 C 9.238281 -5.734375 9.554688 -5.40625 9.796875 -5 C 10.046875 -4.59375 10.171875 -4.070312 10.171875 -3.4375 C 10.171875 -2.757812 10.035156 -2.179688 9.765625 -1.703125 C 9.492188 -1.234375 9.128906 -0.851562 8.671875 -0.5625 C 8.210938 -0.28125 7.695312 -0.0703125 7.125 0.0625 C 6.550781 0.195312 5.972656 0.265625 5.390625 0.265625 C 4.546875 0.265625 3.753906 0.125 3.015625 -0.15625 C 2.273438 -0.445312 1.675781 -0.890625 1.21875 -1.484375 C 0.757812 -2.085938 0.523438 -2.859375 0.515625 -3.796875 L 3.078125 -3.796875 C 3.117188 -3.109375 3.375 -2.601562 3.84375 -2.28125 C 4.320312 -1.957031 4.875 -1.796875 5.5 -1.796875 Z M 5.5 -1.796875 "/></g></g></g><g fill="#000000" fill-opacity="1"><g transform="translate(215.701621, 59.54943)"><g><path d="M 3.21875 -5.03125 L 3.21875 0 L 1.84375 0 L 1.84375 -5.03125 L 0.046875 -5.03125 L 0.046875 -6.28125 L 5.015625 -6.28125 L 5.015625 -5.03125 Z M 3.21875 -5.03125 "/></g></g></g><g fill="#000000" fill-opacity="1"><g transform="translate(227.857721, 59.54943)"><g><path d="M 4.1875 -1.25 L 4.1875 0 L 0.546875 0 L 0.546875 -6.28125 L 4.1875 -6.28125 L 4.1875 -5.03125 L 1.9375 -5.03125 L 1.9375 -3.78125 L 4.09375 -3.78125 L 4.09375 -2.515625 L 1.9375 -2.515625 L 1.9375 -1.25 Z M 4.1875 -1.25 "/></g></g></g><g fill="#000000" fill-opacity="1"><g transform="translate(239.699829, 59.54943)"><g><path d="M 5.09375 -2.140625 L 6.625 -2.140625 C 6.488281 -1.703125 6.269531 -1.316406 5.96875 -0.984375 C 5.664062 -0.648438 5.304688 -0.382812 4.890625 -0.1875 C 4.484375 0 4.039062 0.09375 3.5625 0.09375 C 3.113281 0.09375 2.691406 0.0078125 2.296875 -0.15625 C 1.910156 -0.320312 1.566406 -0.550781 1.265625 -0.84375 C 0.972656 -1.144531 0.742188 -1.488281 0.578125 -1.875 C 0.410156 -2.269531 0.328125 -2.691406 0.328125 -3.140625 C 0.328125 -3.578125 0.410156 -3.992188 0.578125 -4.390625 C 0.742188 -4.785156 0.972656 -5.128906 1.265625 -5.421875 C 1.566406 -5.722656 1.910156 -5.957031 2.296875 -6.125 C 2.691406 -6.289062 3.113281 -6.375 3.5625 -6.375 C 4.039062 -6.375 4.484375 -6.273438 4.890625 -6.078125 C 5.296875 -5.890625 5.648438 -5.628906 5.953125 -5.296875 C 6.253906 -4.972656 6.476562 -4.597656 6.625 -4.171875 L 5.078125 -4.171875 C 4.953125 -4.453125 4.742188 -4.671875 4.453125 -4.828125 C 4.171875 -4.992188 3.875 -5.078125 3.5625 -5.078125 C 3.21875 -5.078125 2.90625 -4.988281 2.625 -4.8125 C 2.351562 -4.632812 2.132812 -4.398438 1.96875 -4.109375 C 1.8125 -3.816406 1.734375 -3.492188 1.734375 -3.140625 C 1.734375 -2.785156 1.8125 -2.460938 1.96875 -2.171875 C 2.132812 -1.878906 2.351562 -1.644531 2.625 -1.46875 C 2.90625 -1.289062 3.21875 -1.203125 3.5625 -1.203125 C 3.882812 -1.203125 4.1875 -1.285156 4.46875 -1.453125 C 4.75 -1.628906 4.957031 -1.859375 5.09375 -2.140625 Z M 5.09375 -2.140625 "/></g></g></g><g fill="#000000" fill-opacity="1"><g transform="translate(253.656758, 59.54943)"><g><path d="M 4 -6.28125 L 5.484375 -6.28125 L 5.484375 0 L 4 0 L 4 -2.515625 L 1.9375 -2.515625 L 1.9375 0 L 0.546875 0 L 0.546875 -6.28125 L 1.9375 -6.28125 L 1.9375 -3.78125 L 4 -3.78125 Z M 4 -6.28125 "/></g></g></g><g fill="#000000" fill-opacity="1"><g transform="translate(266.791776, 59.54943)"><g><path d="M 5.484375 0 L 4.09375 0 L 1.9375 -3.921875 L 1.9375 0 L 0.546875 0 L 0.546875 -6.28125 L 1.9375 -6.28125 L 4.09375 -2.359375 L 4.09375 -6.28125 L 5.484375 -6.28125 Z M 5.484375 0 "/></g></g></g><g fill="#000000" fill-opacity="1"><g transform="translate(279.926794, 59.54943)"><g><path d="M 5.40625 -3.15625 C 5.40625 -3.476562 5.316406 -3.78125 5.140625 -4.0625 C 4.972656 -4.34375 4.75 -4.566406 4.46875 -4.734375 C 4.1875 -4.910156 3.882812 -5 3.5625 -5 C 3.238281 -5 2.929688 -4.910156 2.640625 -4.734375 C 2.359375 -4.566406 2.128906 -4.34375 1.953125 -4.0625 C 1.785156 -3.78125 1.703125 -3.476562 1.703125 -3.15625 C 1.703125 -2.832031 1.785156 -2.523438 1.953125 -2.234375 C 2.128906 -1.953125 2.359375 -1.722656 2.640625 -1.546875 C 2.929688 -1.378906 3.238281 -1.296875 3.5625 -1.296875 C 3.882812 -1.296875 4.1875 -1.378906 4.46875 -1.546875 C 4.75 -1.722656 4.972656 -1.953125 5.140625 -2.234375 C 5.316406 -2.523438 5.40625 -2.832031 5.40625 -3.15625 Z M 6.78125 -3.140625 C 6.78125 -2.710938 6.691406 -2.300781 6.515625 -1.90625 C 6.347656 -1.519531 6.113281 -1.175781 5.8125 -0.875 C 5.519531 -0.570312 5.175781 -0.332031 4.78125 -0.15625 C 4.394531 0.0078125 3.988281 0.09375 3.5625 0.09375 C 3.125 0.09375 2.707031 0.0078125 2.3125 -0.15625 C 1.925781 -0.332031 1.582031 -0.570312 1.28125 -0.875 C 0.988281 -1.175781 0.753906 -1.519531 0.578125 -1.90625 C 0.410156 -2.300781 0.328125 -2.710938 0.328125 -3.140625 C 0.328125 -3.578125 0.410156 -3.988281 0.578125 -4.375 C 0.753906 -4.757812 0.988281 -5.101562 1.28125 -5.40625 C 1.582031 -5.707031 1.925781 -5.941406 2.3125 -6.109375 C 2.707031 -6.285156 3.125 -6.375 3.5625 -6.375 C 3.988281 -6.375 4.394531 -6.285156 4.78125 -6.109375 C 5.175781 -5.941406 5.519531 -5.707031 5.8125 -5.40625 C 6.113281 -5.101562 6.347656 -4.757812 6.515625 -4.375 C 6.691406 -3.988281 6.78125 -3.578125 6.78125 -3.140625 Z M 6.78125 -3.140625 "/></g></g></g><g fill="#000000" fill-opacity="1"><g transform="translate(294.133073, 59.54943)"><g><path d="M 0.546875 0 L 0.546875 -6.28125 L 1.9375 -6.28125 L 1.9375 -1.25 L 4.1875 -1.25 L 4.1875 0 Z M 0.546875 0 "/></g></g></g><g fill="#000000" fill-opacity="1"><g transform="translate(305.744302, 59.54943)"><g><path d="M 5.40625 -3.15625 C 5.40625 -3.476562 5.316406 -3.78125 5.140625 -4.0625 C 4.972656 -4.34375 4.75 -4.566406 4.46875 -4.734375 C 4.1875 -4.910156 3.882812 -5 3.5625 -5 C 3.238281 -5 2.929688 -4.910156 2.640625 -4.734375 C 2.359375 -4.566406 2.128906 -4.34375 1.953125 -4.0625 C 1.785156 -3.78125 1.703125 -3.476562 1.703125 -3.15625 C 1.703125 -2.832031 1.785156 -2.523438 1.953125 -2.234375 C 2.128906 -1.953125 2.359375 -1.722656 2.640625 -1.546875 C 2.929688 -1.378906 3.238281 -1.296875 3.5625 -1.296875 C 3.882812 -1.296875 4.1875 -1.378906 4.46875 -1.546875 C 4.75 -1.722656 4.972656 -1.953125 5.140625 -2.234375 C 5.316406 -2.523438 5.40625 -2.832031 5.40625 -3.15625 Z M 6.78125 -3.140625 C 6.78125 -2.710938 6.691406 -2.300781 6.515625 -1.90625 C 6.347656 -1.519531 6.113281 -1.175781 5.8125 -0.875 C 5.519531 -0.570312 5.175781 -0.332031 4.78125 -0.15625 C 4.394531 0.0078125 3.988281 0.09375 3.5625 0.09375 C 3.125 0.09375 2.707031 0.0078125 2.3125 -0.15625 C 1.925781 -0.332031 1.582031 -0.570312 1.28125 -0.875 C 0.988281 -1.175781 0.753906 -1.519531 0.578125 -1.90625 C 0.410156 -2.300781 0.328125 -2.710938 0.328125 -3.140625 C 0.328125 -3.578125 0.410156 -3.988281 0.578125 -4.375 C 0.753906 -4.757812 0.988281 -5.101562 1.28125 -5.40625 C 1.582031 -5.707031 1.925781 -5.941406 2.3125 -6.109375 C 2.707031 -6.285156 3.125 -6.375 3.5625 -6.375 C 3.988281 -6.375 4.394531 -6.285156 4.78125 -6.109375 C 5.175781 -5.941406 5.519531 -5.707031 5.8125 -5.40625 C 6.113281 -5.101562 6.347656 -4.757812 6.515625 -4.375 C 6.691406 -3.988281 6.78125 -3.578125 6.78125 -3.140625 Z M 6.78125 -3.140625 "/></g></g></g><g fill="#000000" fill-opacity="1"><g transform="translate(319.950581, 59.54943)"><g><path d="M 3.6875 -5.078125 C 3.351562 -5.078125 3.046875 -4.988281 2.765625 -4.8125 C 2.492188 -4.632812 2.273438 -4.394531 2.109375 -4.09375 C 1.941406 -3.800781 1.859375 -3.476562 1.859375 -3.125 C 1.859375 -2.769531 1.941406 -2.441406 2.109375 -2.140625 C 2.273438 -1.847656 2.492188 -1.609375 2.765625 -1.421875 C 3.046875 -1.242188 3.351562 -1.15625 3.6875 -1.15625 C 3.894531 -1.15625 4.109375 -1.1875 4.328125 -1.25 C 4.554688 -1.3125 4.765625 -1.425781 4.953125 -1.59375 C 5.148438 -1.757812 5.304688 -2 5.421875 -2.3125 L 3.828125 -2.3125 L 3.828125 -3.359375 L 6.921875 -3.359375 L 6.921875 -3.140625 C 6.921875 -2.691406 6.835938 -2.269531 6.671875 -1.875 C 6.503906 -1.488281 6.269531 -1.144531 5.96875 -0.84375 C 5.675781 -0.550781 5.335938 -0.320312 4.953125 -0.15625 C 4.566406 0.0078125 4.144531 0.09375 3.6875 0.09375 C 3.25 0.09375 2.832031 0.0078125 2.4375 -0.15625 C 2.050781 -0.332031 1.707031 -0.566406 1.40625 -0.859375 C 1.113281 -1.148438 0.882812 -1.488281 0.71875 -1.875 C 0.550781 -2.269531 0.46875 -2.691406 0.46875 -3.140625 C 0.46875 -3.578125 0.550781 -3.992188 0.71875 -4.390625 C 0.882812 -4.785156 1.113281 -5.128906 1.40625 -5.421875 C 1.707031 -5.710938 2.050781 -5.941406 2.4375 -6.109375 C 2.832031 -6.285156 3.25 -6.375 3.6875 -6.375 C 4.15625 -6.375 4.59375 -6.28125 5 -6.09375 C 5.414062 -5.90625 5.773438 -5.644531 6.078125 -5.3125 C 6.390625 -4.988281 6.617188 -4.609375 6.765625 -4.171875 L 5.234375 -4.171875 C 5.078125 -4.492188 4.859375 -4.722656 4.578125 -4.859375 C 4.296875 -5.003906 4 -5.078125 3.6875 -5.078125 Z M 3.6875 -5.078125 "/></g></g></g><g fill="#000000" fill-opacity="1"><g transform="translate(334.286155, 59.54943)"><g><path d="M 2.390625 0 L 2.390625 -3 L 0.078125 -6.28125 L 1.734375 -6.28125 L 3.078125 -4.109375 L 4.4375 -6.28125 L 6.09375 -6.28125 L 3.78125 -3 L 3.78125 0 Z M 2.390625 0 "/></g></g></g></svg>