<svg xmlns="http://www.w3.org/2000/svg" xmlns:xlink="http://www.w3.org/1999/xlink" width="700" zoomAndPan="magnify" viewBox="0 0 525 74.999997" height="100" preserveAspectRatio="xMidYMid meet" version="1.0"><defs><g/><clipPath id="cd20a7ed70"><path d="M 307.382812 43 L 351 43 L 351 45 L 307.382812 45 Z M 307.382812 43 " clip-rule="nonzero"/></clipPath><clipPath id="d05a6e05c2"><path d="M 307.382812 49 L 351 49 L 351 51 L 307.382812 51 Z M 307.382812 49 " clip-rule="nonzero"/></clipPath><clipPath id="d39e36f923"><path d="M 307.382812 55 L 333 55 L 333 57 L 307.382812 57 Z M 307.382812 55 " clip-rule="nonzero"/></clipPath><clipPath id="4a3bc31ab7"><path d="M 385 60 L 389 60 L 389 63.976562 L 385 63.976562 Z M 385 60 " clip-rule="nonzero"/></clipPath><clipPath id="2bbf8719e9"><path d="M 391 54 L 394.382812 54 L 394.382812 58 L 391 58 Z M 391 54 " clip-rule="nonzero"/></clipPath><clipPath id="e7aa21ae29"><path d="M 368 36.226562 L 372 36.226562 L 372 40 L 368 40 Z M 368 36.226562 " clip-rule="nonzero"/></clipPath><clipPath id="92c3cdf0be"><path d="M 350 60 L 354 60 L 354 63.976562 L 350 63.976562 Z M 350 60 " clip-rule="nonzero"/></clipPath><clipPath id="088eba137f"><path d="M 62.480469 20.753906 L 425.902344 20.753906 L 425.902344 51.695312 L 62.480469 51.695312 Z M 62.480469 20.753906 " clip-rule="nonzero"/></clipPath></defs><g fill="#121723" fill-opacity="1"><g transform="translate(0.0000105, 63.663256)"><g><path d="M 2.96875 0 L 2.96875 -0.84375 L 4.765625 -0.84375 C 6.742188 -0.84375 8.285156 -1.296875 9.390625 -2.203125 C 10.492188 -3.109375 11.046875 -4.640625 11.046875 -6.796875 L 11.046875 -54.140625 C 11.046875 -56.128906 10.492188 -57.578125 9.390625 -58.484375 C 8.285156 -59.390625 6.742188 -59.84375 4.765625 -59.84375 L 2.96875 -59.84375 L 2.96875 -60.6875 L 26.34375 -60.6875 C 41.363281 -60.6875 48.875 -55.8125 48.875 -46.0625 C 48.875 -37.625 43.234375 -32.976562 31.953125 -32.125 L 31.953125 -31.953125 C 38.703125 -31.734375 43.632812 -30.234375 46.75 -27.453125 C 49.863281 -24.679688 51.421875 -20.96875 51.421875 -16.3125 C 51.421875 -5.4375 43.914062 0 28.90625 0 Z M 20.90625 -32.21875 L 26.09375 -32.21875 C 30.507812 -32.21875 33.648438 -33.25 35.515625 -35.3125 C 37.390625 -37.382812 38.328125 -40.828125 38.328125 -45.640625 C 38.328125 -50.796875 37.378906 -54.453125 35.484375 -56.609375 C 33.585938 -58.765625 30.398438 -59.84375 25.921875 -59.84375 L 20.90625 -59.84375 Z M 20.90625 -0.84375 L 28.46875 -0.84375 C 32.945312 -0.84375 36.132812 -2.03125 38.03125 -4.40625 C 39.9375 -6.789062 40.890625 -10.734375 40.890625 -16.234375 C 40.890625 -21.671875 39.953125 -25.550781 38.078125 -27.875 C 36.210938 -30.195312 33.066406 -31.359375 28.640625 -31.359375 L 20.90625 -31.359375 Z M 20.90625 -0.84375 "/></g></g></g><g fill="#121723" fill-opacity="1"><g transform="translate(13.025829, 71.111971)"><g><path d="M 2.96875 0 L 2.96875 -0.84375 L 4.765625 -0.84375 C 6.742188 -0.84375 8.285156 -1.296875 9.390625 -2.203125 C 10.492188 -3.109375 11.046875 -4.640625 11.046875 -6.796875 L 11.046875 -54.140625 C 11.046875 -56.179688 10.492188 -57.640625 9.390625 -58.515625 C 8.285156 -59.398438 6.742188 -59.84375 4.765625 -59.84375 L 2.96875 -59.84375 L 2.96875 -60.6875 L 28.984375 -60.6875 L 28.984375 -59.84375 L 27.203125 -59.84375 C 25.210938 -59.84375 23.679688 -59.390625 22.609375 -58.484375 C 21.535156 -57.578125 21 -56.070312 21 -53.96875 L 21 -0.84375 L 35.78125 -0.84375 C 38.894531 -0.84375 41.382812 -1.296875 43.25 -2.203125 C 45.125 -3.109375 46.53125 -4.597656 47.46875 -6.671875 C 48.40625 -8.742188 48.988281 -11.59375 49.21875 -15.21875 L 49.46875 -18.4375 L 50.3125 -18.4375 L 49.71875 0 Z M 2.96875 0 "/></g></g></g><path fill="#121723" d="M 368.753906 38.078125 L 350.429688 38.078125 C 350.265625 38.078125 350.136719 37.945312 350.136719 37.785156 C 350.136719 37.625 350.265625 37.492188 350.429688 37.492188 L 368.753906 37.492188 C 368.914062 37.492188 369.046875 37.625 369.046875 37.785156 C 369.046875 37.945312 368.914062 38.078125 368.753906 38.078125 Z M 368.753906 38.078125 " fill-opacity="1" fill-rule="nonzero"/><path fill="#121723" d="M 350.632812 37.992188 L 344.527344 44.101562 C 344.410156 44.214844 344.226562 44.214844 344.113281 44.101562 C 344 43.984375 344 43.800781 344.113281 43.6875 L 350.222656 37.578125 C 350.335938 37.464844 350.519531 37.464844 350.632812 37.578125 C 350.75 37.691406 350.75 37.878906 350.632812 37.992188 Z M 350.632812 37.992188 " fill-opacity="1" fill-rule="nonzero"/><g clip-path="url(#cd20a7ed70)"><path fill="#121723" d="M 307.667969 43.601562 L 350.429688 43.601562 C 350.589844 43.601562 350.71875 43.730469 350.71875 43.894531 C 350.71875 44.054688 350.589844 44.183594 350.429688 44.183594 L 307.667969 44.183594 C 307.507812 44.183594 307.378906 44.054688 307.378906 43.894531 C 307.378906 43.730469 307.507812 43.601562 307.667969 43.601562 Z M 307.667969 43.601562 " fill-opacity="1" fill-rule="nonzero"/></g><path fill="#121723" d="M 350.632812 43.6875 L 362.851562 55.902344 C 362.964844 56.015625 362.964844 56.203125 362.851562 56.316406 C 362.738281 56.429688 362.550781 56.429688 362.4375 56.316406 L 350.222656 44.101562 C 350.105469 43.984375 350.105469 43.800781 350.222656 43.6875 C 350.335938 43.574219 350.519531 43.574219 350.632812 43.6875 Z M 350.632812 43.6875 " fill-opacity="1" fill-rule="nonzero"/><path fill="#121723" d="M 362.644531 55.816406 L 374.863281 55.816406 C 375.023438 55.816406 375.152344 55.949219 375.152344 56.109375 C 375.152344 56.269531 375.023438 56.402344 374.863281 56.402344 L 362.644531 56.402344 C 362.484375 56.402344 362.351562 56.269531 362.351562 56.109375 C 362.351562 55.949219 362.484375 55.816406 362.644531 55.816406 Z M 362.644531 55.816406 " fill-opacity="1" fill-rule="nonzero"/><path fill="#121723" d="M 356.328125 49.796875 L 362.4375 43.6875 C 362.550781 43.574219 362.738281 43.574219 362.851562 43.6875 C 362.964844 43.800781 362.964844 43.984375 362.851562 44.101562 L 356.742188 50.207031 C 356.628906 50.320312 356.445312 50.320312 356.328125 50.207031 C 356.214844 50.09375 356.214844 49.910156 356.328125 49.796875 Z M 356.328125 49.796875 " fill-opacity="1" fill-rule="nonzero"/><path fill="#121723" d="M 362.644531 43.601562 L 380.96875 43.601562 C 381.132812 43.601562 381.261719 43.730469 381.261719 43.894531 C 381.261719 44.054688 381.132812 44.183594 380.96875 44.183594 L 362.644531 44.183594 C 362.484375 44.183594 362.351562 44.054688 362.351562 43.894531 C 362.351562 43.730469 362.484375 43.601562 362.644531 43.601562 Z M 362.644531 43.601562 " fill-opacity="1" fill-rule="nonzero"/><g clip-path="url(#d05a6e05c2)"><path fill="#121723" d="M 307.667969 49.710938 L 350.429688 49.710938 C 350.589844 49.710938 350.71875 49.839844 350.71875 50 C 350.71875 50.164062 350.589844 50.292969 350.429688 50.292969 L 307.667969 50.292969 C 307.507812 50.292969 307.378906 50.164062 307.378906 50 C 307.378906 49.839844 307.507812 49.710938 307.667969 49.710938 Z M 307.667969 49.710938 " fill-opacity="1" fill-rule="nonzero"/></g><path fill="#121723" d="M 350.632812 49.796875 L 362.851562 62.011719 C 362.964844 62.125 362.964844 62.3125 362.851562 62.425781 C 362.738281 62.539062 362.550781 62.539062 362.4375 62.425781 L 350.222656 50.207031 C 350.105469 50.09375 350.105469 49.910156 350.222656 49.796875 C 350.335938 49.679688 350.519531 49.679688 350.632812 49.796875 Z M 350.632812 49.796875 " fill-opacity="1" fill-rule="nonzero"/><path fill="#121723" d="M 362.644531 61.925781 L 387.078125 61.925781 C 387.238281 61.925781 387.371094 62.058594 387.371094 62.21875 C 387.371094 62.378906 387.238281 62.511719 387.078125 62.511719 L 362.644531 62.511719 C 362.484375 62.511719 362.351562 62.378906 362.351562 62.21875 C 362.351562 62.058594 362.484375 61.925781 362.644531 61.925781 Z M 362.644531 61.925781 " fill-opacity="1" fill-rule="nonzero"/><path fill="#121723" d="M 374.65625 62.011719 L 380.761719 55.902344 C 380.878906 55.789062 381.0625 55.789062 381.175781 55.902344 C 381.289062 56.015625 381.289062 56.203125 381.175781 56.316406 L 375.066406 62.425781 C 374.953125 62.539062 374.769531 62.539062 374.65625 62.425781 C 374.542969 62.3125 374.542969 62.125 374.65625 62.011719 Z M 374.65625 62.011719 " fill-opacity="1" fill-rule="nonzero"/><path fill="#121723" d="M 380.96875 55.816406 L 393.1875 55.816406 C 393.347656 55.816406 393.480469 55.949219 393.480469 56.109375 C 393.480469 56.269531 393.347656 56.402344 393.1875 56.402344 L 380.96875 56.402344 C 380.808594 56.402344 380.679688 56.269531 380.679688 56.109375 C 380.679688 55.949219 380.808594 55.816406 380.96875 55.816406 Z M 380.96875 55.816406 " fill-opacity="1" fill-rule="nonzero"/><g clip-path="url(#d39e36f923)"><path fill="#121723" d="M 307.667969 55.816406 L 332.101562 55.816406 C 332.265625 55.816406 332.394531 55.949219 332.394531 56.109375 C 332.394531 56.269531 332.265625 56.402344 332.101562 56.402344 L 307.667969 56.402344 C 307.507812 56.402344 307.378906 56.269531 307.378906 56.109375 C 307.378906 55.949219 307.507812 55.816406 307.667969 55.816406 Z M 307.667969 55.816406 " fill-opacity="1" fill-rule="nonzero"/></g><path fill="#121723" d="M 332.308594 55.902344 L 338.417969 62.011719 C 338.53125 62.125 338.53125 62.3125 338.417969 62.425781 C 338.304688 62.539062 338.117188 62.539062 338.003906 62.425781 L 331.894531 56.316406 C 331.78125 56.203125 331.78125 56.015625 331.894531 55.902344 C 332.011719 55.789062 332.195312 55.789062 332.308594 55.902344 Z M 332.308594 55.902344 " fill-opacity="1" fill-rule="nonzero"/><path fill="#121723" d="M 338.210938 61.925781 L 350.429688 61.925781 C 350.589844 61.925781 350.71875 62.058594 350.71875 62.21875 C 350.71875 62.378906 350.589844 62.511719 350.429688 62.511719 L 338.210938 62.511719 C 338.050781 62.511719 337.917969 62.378906 337.917969 62.21875 C 337.917969 62.058594 338.050781 61.925781 338.210938 61.925781 Z M 338.210938 61.925781 " fill-opacity="1" fill-rule="nonzero"/><path fill="#121723" d="M 382.402344 43.980469 C 382.355469 44.773438 381.671875 45.375 380.882812 45.324219 C 380.089844 45.277344 379.488281 44.597656 379.539062 43.804688 C 379.585938 43.015625 380.265625 42.410156 381.058594 42.460938 C 381.847656 42.507812 382.453125 43.191406 382.402344 43.980469 Z M 382.402344 43.980469 " fill-opacity="1" fill-rule="nonzero"/><path fill="#121723" d="M 376.292969 56.199219 C 376.246094 56.988281 375.566406 57.589844 374.773438 57.542969 C 373.980469 57.496094 373.378906 56.8125 373.429688 56.023438 C 373.476562 55.230469 374.160156 54.628906 374.949219 54.675781 C 375.742188 54.726562 376.34375 55.40625 376.292969 56.199219 Z M 376.292969 56.199219 " fill-opacity="1" fill-rule="nonzero"/><g clip-path="url(#4a3bc31ab7)"><path fill="#121723" d="M 388.511719 62.304688 C 388.460938 63.097656 387.78125 63.699219 386.992188 63.652344 C 386.199219 63.601562 385.597656 62.921875 385.644531 62.128906 C 385.695312 61.339844 386.375 60.738281 387.167969 60.785156 C 387.957031 60.835938 388.558594 61.515625 388.511719 62.304688 Z M 388.511719 62.304688 " fill-opacity="1" fill-rule="nonzero"/></g><g clip-path="url(#2bbf8719e9)"><path fill="#121723" d="M 394.621094 56.199219 C 394.570312 56.988281 393.890625 57.589844 393.097656 57.542969 C 392.308594 57.496094 391.707031 56.8125 391.753906 56.023438 C 391.800781 55.230469 392.484375 54.628906 393.273438 54.675781 C 394.066406 54.726562 394.667969 55.40625 394.621094 56.199219 Z M 394.621094 56.199219 " fill-opacity="1" fill-rule="nonzero"/></g><g clip-path="url(#e7aa21ae29)"><path fill="#121723" d="M 371.832031 37.96875 C 371.769531 38.820312 371.03125 39.464844 370.179688 39.402344 C 369.324219 39.34375 368.683594 38.601562 368.742188 37.75 C 368.804688 36.898438 369.542969 36.253906 370.398438 36.316406 C 371.25 36.375 371.890625 37.117188 371.832031 37.96875 M 371.214844 37.925781 C 371.253906 37.410156 370.867188 36.964844 370.351562 36.929688 C 369.839844 36.894531 369.394531 37.28125 369.359375 37.792969 C 369.320312 38.304688 369.707031 38.75 370.222656 38.789062 C 370.734375 38.824219 371.179688 38.4375 371.214844 37.925781 Z M 371.214844 37.925781 " fill-opacity="1" fill-rule="nonzero"/></g><g clip-path="url(#92c3cdf0be)"><path fill="#121723" d="M 353.449219 62.40625 C 353.390625 63.257812 352.648438 63.898438 351.796875 63.839844 C 350.941406 63.777344 350.300781 63.039062 350.363281 62.1875 C 350.421875 61.332031 351.164062 60.691406 352.015625 60.75 C 352.867188 60.8125 353.511719 61.550781 353.449219 62.40625 M 352.835938 62.359375 C 352.871094 61.847656 352.484375 61.402344 351.972656 61.367188 C 351.457031 61.328125 351.011719 61.714844 350.976562 62.230469 C 350.941406 62.742188 351.328125 63.1875 351.839844 63.226562 C 352.351562 63.261719 352.796875 62.875 352.835938 62.359375 Z M 352.835938 62.359375 " fill-opacity="1" fill-rule="nonzero"/></g><g clip-path="url(#088eba137f)"><path fill="#121723" d="M 62.480469 20.753906 L 425.9375 20.753906 L 425.9375 51.695312 L 62.480469 51.695312 Z M 62.480469 20.753906 " fill-opacity="1" fill-rule="nonzero"/></g><g fill="#ffffff" fill-opacity="1"><g transform="translate(94.19903, 41.614442)"><g><path d="M 6.578125 -3.375 C 6.578125 -3.75 6.4375 -4.070312 6.15625 -4.34375 C 5.882812 -4.625 5.554688 -4.765625 5.171875 -4.765625 L 3.5625 -4.765625 L 3.5625 -1.984375 L 5.171875 -1.984375 C 5.554688 -1.984375 5.882812 -2.117188 6.15625 -2.390625 C 6.4375 -2.660156 6.578125 -2.988281 6.578125 -3.375 Z M 5.78125 -8.1875 C 5.78125 -8.5625 5.644531 -8.878906 5.375 -9.140625 C 5.113281 -9.398438 4.800781 -9.53125 4.4375 -9.53125 L 3.5625 -9.53125 L 3.5625 -6.84375 L 4.4375 -6.84375 C 4.800781 -6.84375 5.113281 -6.972656 5.375 -7.234375 C 5.644531 -7.503906 5.78125 -7.820312 5.78125 -8.1875 Z M 9.171875 -3.3125 C 9.171875 -2.3125 8.863281 -1.507812 8.25 -0.90625 C 7.644531 -0.300781 6.785156 0 5.671875 0 L 1.015625 0 L 1.015625 -11.53125 L 4.984375 -11.53125 C 5.640625 -11.53125 6.207031 -11.398438 6.6875 -11.140625 C 7.164062 -10.878906 7.535156 -10.53125 7.796875 -10.09375 C 8.066406 -9.65625 8.203125 -9.171875 8.203125 -8.640625 C 8.203125 -8.054688 8.078125 -7.550781 7.828125 -7.125 C 7.585938 -6.707031 7.253906 -6.398438 6.828125 -6.203125 C 7.472656 -6.054688 8.023438 -5.726562 8.484375 -5.21875 C 8.941406 -4.71875 9.171875 -4.082031 9.171875 -3.3125 Z M 9.171875 -3.3125 "/></g></g></g><g fill="#ffffff" fill-opacity="1"><g transform="translate(116.558553, 41.614442)"><g><path d="M 7.75 -11.53125 L 10.296875 -11.53125 L 10.296875 -4.5 C 10.296875 -2.957031 9.875 -1.789062 9.03125 -1 C 8.195312 -0.21875 7.03125 0.171875 5.53125 0.171875 C 4.019531 0.171875 2.847656 -0.21875 2.015625 -1 C 1.179688 -1.789062 0.765625 -2.957031 0.765625 -4.5 L 0.765625 -11.53125 L 3.3125 -11.53125 L 3.3125 -4.859375 C 3.3125 -4.066406 3.460938 -3.453125 3.765625 -3.015625 C 4.078125 -2.585938 4.664062 -2.375 5.53125 -2.375 C 6.394531 -2.375 6.976562 -2.585938 7.28125 -3.015625 C 7.59375 -3.453125 7.75 -4.066406 7.75 -4.859375 Z M 7.75 -11.53125 "/></g></g></g><g fill="#ffffff" fill-opacity="1"><g transform="translate(140.629307, 41.614442)"><g><path d="M 10.0625 0 L 7.53125 0 L 3.5625 -7.1875 L 3.5625 0 L 1.015625 0 L 1.015625 -11.53125 L 3.5625 -11.53125 L 7.53125 -4.34375 L 7.53125 -11.53125 L 10.0625 -11.53125 Z M 10.0625 0 "/></g></g></g><g fill="#ffffff" fill-opacity="1"><g transform="translate(164.733941, 41.614442)"><g><path d="M 10.0625 0 L 7.53125 0 L 3.5625 -7.1875 L 3.5625 0 L 1.015625 0 L 1.015625 -11.53125 L 3.5625 -11.53125 L 7.53125 -4.34375 L 7.53125 -11.53125 L 10.0625 -11.53125 Z M 10.0625 0 "/></g></g></g><g fill="#ffffff" fill-opacity="1"><g transform="translate(188.838575, 41.614442)"><g><path d="M 4.390625 0 L 4.390625 -5.515625 L 0.140625 -11.53125 L 3.171875 -11.53125 L 5.65625 -7.546875 L 8.15625 -11.53125 L 11.1875 -11.53125 L 6.9375 -5.515625 L 6.9375 0 Z M 4.390625 0 "/></g></g></g><g fill="#ffffff" fill-opacity="1"><g transform="translate(213.180408, 41.614442)"><g><path d="M 7.53125 -4.625 L 3.5625 -4.625 L 3.5625 0 L 1.015625 0 L 1.015625 -11.53125 L 7.703125 -11.53125 L 7.703125 -9.21875 L 3.5625 -9.21875 L 3.5625 -6.9375 L 7.53125 -6.9375 Z M 7.53125 -4.625 "/></g></g></g><g fill="#ffffff" fill-opacity="1"><g transform="translate(234.743611, 41.614442)"><g><path d="M 3.5625 0 L 1.015625 0 L 1.015625 -11.53125 L 3.5625 -11.53125 Z M 3.5625 0 "/></g></g></g><g fill="#ffffff" fill-opacity="1"><g transform="translate(252.342187, 41.614442)"><g><path d="M 7.703125 -2.3125 L 7.703125 0 L 1.015625 0 L 1.015625 -11.53125 L 7.703125 -11.53125 L 7.703125 -9.21875 L 3.5625 -9.21875 L 3.5625 -6.9375 L 7.53125 -6.9375 L 7.53125 -4.625 L 3.5625 -4.625 L 3.5625 -2.3125 Z M 7.703125 -2.3125 "/></g></g></g><g fill="#ffffff" fill-opacity="1"><g transform="translate(274.074816, 41.614442)"><g><path d="M 3.53125 -2.34375 L 4.296875 -2.34375 C 4.941406 -2.34375 5.507812 -2.492188 6 -2.796875 C 6.5 -3.097656 6.882812 -3.507812 7.15625 -4.03125 C 7.4375 -4.550781 7.578125 -5.128906 7.578125 -5.765625 C 7.578125 -6.410156 7.4375 -6.988281 7.15625 -7.5 C 6.882812 -8.007812 6.5 -8.414062 6 -8.71875 C 5.507812 -9.019531 4.941406 -9.171875 4.296875 -9.171875 L 3.53125 -9.171875 Z M 1.015625 -11.53125 L 4.4375 -11.53125 C 5.25 -11.53125 6.003906 -11.378906 6.703125 -11.078125 C 7.398438 -10.785156 8.007812 -10.378906 8.53125 -9.859375 C 9.050781 -9.347656 9.453125 -8.738281 9.734375 -8.03125 C 10.023438 -7.332031 10.171875 -6.578125 10.171875 -5.765625 C 10.171875 -4.953125 10.023438 -4.191406 9.734375 -3.484375 C 9.453125 -2.785156 9.050781 -2.175781 8.53125 -1.65625 C 8.019531 -1.132812 7.410156 -0.726562 6.703125 -0.4375 C 6.003906 -0.144531 5.25 0 4.4375 0 L 1.015625 0 Z M 1.015625 -11.53125 "/></g></g></g><g fill="#ffffff" fill-opacity="1"><g transform="translate(297.857538, 41.614442)"><g/></g></g><g fill="#ffffff" fill-opacity="1"><g transform="translate(315.117249, 41.614442)"><g><path d="M 1.015625 0 L 1.015625 -11.53125 L 3.5625 -11.53125 L 3.5625 -2.3125 L 7.703125 -2.3125 L 7.703125 0 Z M 1.015625 0 "/></g></g></g><g fill="#ffffff" fill-opacity="1"><g transform="translate(336.426312, 41.614442)"><g><path d="M 7.296875 -4.40625 L 5.828125 -8.515625 L 4.375 -4.40625 Z M 11.59375 0 L 8.859375 0 L 8.03125 -2.328125 L 3.640625 -2.328125 L 2.8125 0 L 0.078125 0 L 4.765625 -11.53125 L 6.921875 -11.53125 Z M 11.59375 0 "/></g></g></g><g fill="#ffffff" fill-opacity="1"><g transform="translate(361.12395, 41.614442)"><g><path d="M 6.578125 -3.375 C 6.578125 -3.75 6.4375 -4.070312 6.15625 -4.34375 C 5.882812 -4.625 5.554688 -4.765625 5.171875 -4.765625 L 3.5625 -4.765625 L 3.5625 -1.984375 L 5.171875 -1.984375 C 5.554688 -1.984375 5.882812 -2.117188 6.15625 -2.390625 C 6.4375 -2.660156 6.578125 -2.988281 6.578125 -3.375 Z M 5.78125 -8.1875 C 5.78125 -8.5625 5.644531 -8.878906 5.375 -9.140625 C 5.113281 -9.398438 4.800781 -9.53125 4.4375 -9.53125 L 3.5625 -9.53125 L 3.5625 -6.84375 L 4.4375 -6.84375 C 4.800781 -6.84375 5.113281 -6.972656 5.375 -7.234375 C 5.644531 -7.503906 5.78125 -7.820312 5.78125 -8.1875 Z M 9.171875 -3.3125 C 9.171875 -2.3125 8.863281 -1.507812 8.25 -0.90625 C 7.644531 -0.300781 6.785156 0 5.671875 0 L 1.015625 0 L 1.015625 -11.53125 L 4.984375 -11.53125 C 5.640625 -11.53125 6.207031 -11.398438 6.6875 -11.140625 C 7.164062 -10.878906 7.535156 -10.53125 7.796875 -10.09375 C 8.066406 -9.65625 8.203125 -9.171875 8.203125 -8.640625 C 8.203125 -8.054688 8.078125 -7.550781 7.828125 -7.125 C 7.585938 -6.707031 7.253906 -6.398438 6.828125 -6.203125 C 7.472656 -6.054688 8.023438 -5.726562 8.484375 -5.21875 C 8.941406 -4.71875 9.171875 -4.082031 9.171875 -3.3125 Z M 9.171875 -3.3125 "/></g></g></g><g fill="#ffffff" fill-opacity="1"><g transform="translate(383.483476, 41.614442)"><g><path d="M 5.5 -1.796875 C 5.769531 -1.796875 6.0625 -1.835938 6.375 -1.921875 C 6.6875 -2.003906 6.957031 -2.144531 7.1875 -2.34375 C 7.425781 -2.539062 7.546875 -2.8125 7.546875 -3.15625 C 7.546875 -3.46875 7.421875 -3.71875 7.171875 -3.90625 C 6.929688 -4.101562 6.613281 -4.265625 6.21875 -4.390625 C 5.820312 -4.515625 5.390625 -4.628906 4.921875 -4.734375 C 4.453125 -4.847656 3.976562 -4.976562 3.5 -5.125 C 3.03125 -5.28125 2.597656 -5.484375 2.203125 -5.734375 C 1.804688 -5.984375 1.484375 -6.304688 1.234375 -6.703125 C 0.992188 -7.097656 0.875 -7.597656 0.875 -8.203125 C 0.875 -8.804688 1 -9.320312 1.25 -9.75 C 1.5 -10.1875 1.828125 -10.550781 2.234375 -10.84375 C 2.648438 -11.132812 3.113281 -11.347656 3.625 -11.484375 C 4.144531 -11.628906 4.664062 -11.703125 5.1875 -11.703125 C 5.976562 -11.703125 6.71875 -11.578125 7.40625 -11.328125 C 8.09375 -11.078125 8.65625 -10.679688 9.09375 -10.140625 C 9.53125 -9.609375 9.757812 -8.898438 9.78125 -8.015625 L 7.328125 -8.015625 C 7.253906 -8.617188 7.039062 -9.035156 6.6875 -9.265625 C 6.34375 -9.492188 5.851562 -9.609375 5.21875 -9.609375 C 4.976562 -9.609375 4.722656 -9.566406 4.453125 -9.484375 C 4.191406 -9.410156 3.96875 -9.285156 3.78125 -9.109375 C 3.601562 -8.929688 3.515625 -8.695312 3.515625 -8.40625 C 3.515625 -8.113281 3.632812 -7.878906 3.875 -7.703125 C 4.113281 -7.535156 4.429688 -7.394531 4.828125 -7.28125 C 5.222656 -7.175781 5.65625 -7.070312 6.125 -6.96875 C 6.601562 -6.863281 7.078125 -6.738281 7.546875 -6.59375 C 8.015625 -6.445312 8.445312 -6.242188 8.84375 -5.984375 C 9.238281 -5.734375 9.554688 -5.40625 9.796875 -5 C 10.046875 -4.59375 10.171875 -4.070312 10.171875 -3.4375 C 10.171875 -2.757812 10.035156 -2.179688 9.765625 -1.703125 C 9.492188 -1.234375 9.128906 -0.851562 8.671875 -0.5625 C 8.210938 -0.28125 7.695312 -0.0703125 7.125 0.0625 C 6.550781 0.195312 5.972656 0.265625 5.390625 0.265625 C 4.546875 0.265625 3.753906 0.125 3.015625 -0.15625 C 2.273438 -0.445312 1.675781 -0.890625 1.21875 -1.484375 C 0.757812 -2.085938 0.523438 -2.859375 0.515625 -3.796875 L 3.078125 -3.796875 C 3.117188 -3.109375 3.375 -2.601562 3.84375 -2.28125 C 4.320312 -1.957031 4.875 -1.796875 5.5 -1.796875 Z M 5.5 -1.796875 "/></g></g></g><g fill="#121723" fill-opacity="1"><g transform="translate(181.806104, 59.54943)"><g><path d="M 3.21875 -5.03125 L 3.21875 0 L 1.84375 0 L 1.84375 -5.03125 L 0.046875 -5.03125 L 0.046875 -6.28125 L 5.015625 -6.28125 L 5.015625 -5.03125 Z M 3.21875 -5.03125 "/></g></g></g><g fill="#121723" fill-opacity="1"><g transform="translate(193.962204, 59.54943)"><g><path d="M 4.1875 -1.25 L 4.1875 0 L 0.546875 0 L 0.546875 -6.28125 L 4.1875 -6.28125 L 4.1875 -5.03125 L 1.9375 -5.03125 L 1.9375 -3.78125 L 4.09375 -3.78125 L 4.09375 -2.515625 L 1.9375 -2.515625 L 1.9375 -1.25 Z M 4.1875 -1.25 "/></g></g></g><g fill="#121723" fill-opacity="1"><g transform="translate(205.804312, 59.54943)"><g><path d="M 5.09375 -2.140625 L 6.625 -2.140625 C 6.488281 -1.703125 6.269531 -1.316406 5.96875 -0.984375 C 5.664062 -0.648438 5.304688 -0.382812 4.890625 -0.1875 C 4.484375 0 4.039062 0.09375 3.5625 0.09375 C 3.113281 0.09375 2.691406 0.0078125 2.296875 -0.15625 C 1.910156 -0.320312 1.566406 -0.550781 1.265625 -0.84375 C 0.972656 -1.144531 0.742188 -1.488281 0.578125 -1.875 C 0.410156 -2.269531 0.328125 -2.691406 0.328125 -3.140625 C 0.328125 -3.578125 0.410156 -3.992188 0.578125 -4.390625 C 0.742188 -4.785156 0.972656 -5.128906 1.265625 -5.421875 C 1.566406 -5.722656 1.910156 -5.957031 2.296875 -6.125 C 2.691406 -6.289062 3.113281 -6.375 3.5625 -6.375 C 4.039062 -6.375 4.484375 -6.273438 4.890625 -6.078125 C 5.296875 -5.890625 5.648438 -5.628906 5.953125 -5.296875 C 6.253906 -4.972656 6.476562 -4.597656 6.625 -4.171875 L 5.078125 -4.171875 C 4.953125 -4.453125 4.742188 -4.671875 4.453125 -4.828125 C 4.171875 -4.992188 3.875 -5.078125 3.5625 -5.078125 C 3.21875 -5.078125 2.90625 -4.988281 2.625 -4.8125 C 2.351562 -4.632812 2.132812 -4.398438 1.96875 -4.109375 C 1.8125 -3.816406 1.734375 -3.492188 1.734375 -3.140625 C 1.734375 -2.785156 1.8125 -2.460938 1.96875 -2.171875 C 2.132812 -1.878906 2.351562 -1.644531 2.625 -1.46875 C 2.90625 -1.289062 3.21875 -1.203125 3.5625 -1.203125 C 3.882812 -1.203125 4.1875 -1.285156 4.46875 -1.453125 C 4.75 -1.628906 4.957031 -1.859375 5.09375 -2.140625 Z M 5.09375 -2.140625 "/></g></g></g><g fill="#121723" fill-opacity="1"><g transform="translate(219.761242, 59.54943)"><g><path d="M 4 -6.28125 L 5.484375 -6.28125 L 5.484375 0 L 4 0 L 4 -2.515625 L 1.9375 -2.515625 L 1.9375 0 L 0.546875 0 L 0.546875 -6.28125 L 1.9375 -6.28125 L 1.9375 -3.78125 L 4 -3.78125 Z M 4 -6.28125 "/></g></g></g><g fill="#121723" fill-opacity="1"><g transform="translate(232.89626, 59.54943)"><g><path d="M 5.484375 0 L 4.09375 0 L 1.9375 -3.921875 L 1.9375 0 L 0.546875 0 L 0.546875 -6.28125 L 1.9375 -6.28125 L 4.09375 -2.359375 L 4.09375 -6.28125 L 5.484375 -6.28125 Z M 5.484375 0 "/></g></g></g><g fill="#121723" fill-opacity="1"><g transform="translate(246.031277, 59.54943)"><g><path d="M 5.40625 -3.15625 C 5.40625 -3.476562 5.316406 -3.78125 5.140625 -4.0625 C 4.972656 -4.34375 4.75 -4.566406 4.46875 -4.734375 C 4.1875 -4.910156 3.882812 -5 3.5625 -5 C 3.238281 -5 2.929688 -4.910156 2.640625 -4.734375 C 2.359375 -4.566406 2.128906 -4.34375 1.953125 -4.0625 C 1.785156 -3.78125 1.703125 -3.476562 1.703125 -3.15625 C 1.703125 -2.832031 1.785156 -2.523438 1.953125 -2.234375 C 2.128906 -1.953125 2.359375 -1.722656 2.640625 -1.546875 C 2.929688 -1.378906 3.238281 -1.296875 3.5625 -1.296875 C 3.882812 -1.296875 4.1875 -1.378906 4.46875 -1.546875 C 4.75 -1.722656 4.972656 -1.953125 5.140625 -2.234375 C 5.316406 -2.523438 5.40625 -2.832031 5.40625 -3.15625 Z M 6.78125 -3.140625 C 6.78125 -2.710938 6.691406 -2.300781 6.515625 -1.90625 C 6.347656 -1.519531 6.113281 -1.175781 5.8125 -0.875 C 5.519531 -0.570312 5.175781 -0.332031 4.78125 -0.15625 C 4.394531 0.0078125 3.988281 0.09375 3.5625 0.09375 C 3.125 0.09375 2.707031 0.0078125 2.3125 -0.15625 C 1.925781 -0.332031 1.582031 -0.570312 1.28125 -0.875 C 0.988281 -1.175781 0.753906 -1.519531 0.578125 -1.90625 C 0.410156 -2.300781 0.328125 -2.710938 0.328125 -3.140625 C 0.328125 -3.578125 0.410156 -3.988281 0.578125 -4.375 C 0.753906 -4.757812 0.988281 -5.101562 1.28125 -5.40625 C 1.582031 -5.707031 1.925781 -5.941406 2.3125 -6.109375 C 2.707031 -6.285156 3.125 -6.375 3.5625 -6.375 C 3.988281 -6.375 4.394531 -6.285156 4.78125 -6.109375 C 5.175781 -5.941406 5.519531 -5.707031 5.8125 -5.40625 C 6.113281 -5.101562 6.347656 -4.757812 6.515625 -4.375 C 6.691406 -3.988281 6.78125 -3.578125 6.78125 -3.140625 Z M 6.78125 -3.140625 "/></g></g></g><g fill="#121723" fill-opacity="1"><g transform="translate(260.237556, 59.54943)"><g><path d="M 0.546875 0 L 0.546875 -6.28125 L 1.9375 -6.28125 L 1.9375 -1.25 L 4.1875 -1.25 L 4.1875 0 Z M 0.546875 0 "/></g></g></g><g fill="#121723" fill-opacity="1"><g transform="translate(271.848785, 59.54943)"><g><path d="M 5.40625 -3.15625 C 5.40625 -3.476562 5.316406 -3.78125 5.140625 -4.0625 C 4.972656 -4.34375 4.75 -4.566406 4.46875 -4.734375 C 4.1875 -4.910156 3.882812 -5 3.5625 -5 C 3.238281 -5 2.929688 -4.910156 2.640625 -4.734375 C 2.359375 -4.566406 2.128906 -4.34375 1.953125 -4.0625 C 1.785156 -3.78125 1.703125 -3.476562 1.703125 -3.15625 C 1.703125 -2.832031 1.785156 -2.523438 1.953125 -2.234375 C 2.128906 -1.953125 2.359375 -1.722656 2.640625 -1.546875 C 2.929688 -1.378906 3.238281 -1.296875 3.5625 -1.296875 C 3.882812 -1.296875 4.1875 -1.378906 4.46875 -1.546875 C 4.75 -1.722656 4.972656 -1.953125 5.140625 -2.234375 C 5.316406 -2.523438 5.40625 -2.832031 5.40625 -3.15625 Z M 6.78125 -3.140625 C 6.78125 -2.710938 6.691406 -2.300781 6.515625 -1.90625 C 6.347656 -1.519531 6.113281 -1.175781 5.8125 -0.875 C 5.519531 -0.570312 5.175781 -0.332031 4.78125 -0.15625 C 4.394531 0.0078125 3.988281 0.09375 3.5625 0.09375 C 3.125 0.09375 2.707031 0.0078125 2.3125 -0.15625 C 1.925781 -0.332031 1.582031 -0.570312 1.28125 -0.875 C 0.988281 -1.175781 0.753906 -1.519531 0.578125 -1.90625 C 0.410156 -2.300781 0.328125 -2.710938 0.328125 -3.140625 C 0.328125 -3.578125 0.410156 -3.988281 0.578125 -4.375 C 0.753906 -4.757812 0.988281 -5.101562 1.28125 -5.40625 C 1.582031 -5.707031 1.925781 -5.941406 2.3125 -6.109375 C 2.707031 -6.285156 3.125 -6.375 3.5625 -6.375 C 3.988281 -6.375 4.394531 -6.285156 4.78125 -6.109375 C 5.175781 -5.941406 5.519531 -5.707031 5.8125 -5.40625 C 6.113281 -5.101562 6.347656 -4.757812 6.515625 -4.375 C 6.691406 -3.988281 6.78125 -3.578125 6.78125 -3.140625 Z M 6.78125 -3.140625 "/></g></g></g><g fill="#121723" fill-opacity="1"><g transform="translate(286.055064, 59.54943)"><g><path d="M 3.6875 -5.078125 C 3.351562 -5.078125 3.046875 -4.988281 2.765625 -4.8125 C 2.492188 -4.632812 2.273438 -4.394531 2.109375 -4.09375 C 1.941406 -3.800781 1.859375 -3.476562 1.859375 -3.125 C 1.859375 -2.769531 1.941406 -2.441406 2.109375 -2.140625 C 2.273438 -1.847656 2.492188 -1.609375 2.765625 -1.421875 C 3.046875 -1.242188 3.351562 -1.15625 3.6875 -1.15625 C 3.894531 -1.15625 4.109375 -1.1875 4.328125 -1.25 C 4.554688 -1.3125 4.765625 -1.425781 4.953125 -1.59375 C 5.148438 -1.757812 5.304688 -2 5.421875 -2.3125 L 3.828125 -2.3125 L 3.828125 -3.359375 L 6.921875 -3.359375 L 6.921875 -3.140625 C 6.921875 -2.691406 6.835938 -2.269531 6.671875 -1.875 C 6.503906 -1.488281 6.269531 -1.144531 5.96875 -0.84375 C 5.675781 -0.550781 5.335938 -0.320312 4.953125 -0.15625 C 4.566406 0.0078125 4.144531 0.09375 3.6875 0.09375 C 3.25 0.09375 2.832031 0.0078125 2.4375 -0.15625 C 2.050781 -0.332031 1.707031 -0.566406 1.40625 -0.859375 C 1.113281 -1.148438 0.882812 -1.488281 0.71875 -1.875 C 0.550781 -2.269531 0.46875 -2.691406 0.46875 -3.140625 C 0.46875 -3.578125 0.550781 -3.992188 0.71875 -4.390625 C 0.882812 -4.785156 1.113281 -5.128906 1.40625 -5.421875 C 1.707031 -5.710938 2.050781 -5.941406 2.4375 -6.109375 C 2.832031 -6.285156 3.25 -6.375 3.6875 -6.375 C 4.15625 -6.375 4.59375 -6.28125 5 -6.09375 C 5.414062 -5.90625 5.773438 -5.644531 6.078125 -5.3125 C 6.390625 -4.988281 6.617188 -4.609375 6.765625 -4.171875 L 5.234375 -4.171875 C 5.078125 -4.492188 4.859375 -4.722656 4.578125 -4.859375 C 4.296875 -5.003906 4 -5.078125 3.6875 -5.078125 Z M 3.6875 -5.078125 "/></g></g></g><g fill="#121723" fill-opacity="1"><g transform="translate(300.390639, 59.54943)"><g><path d="M 2.390625 0 L 2.390625 -3 L 0.078125 -6.28125 L 1.734375 -6.28125 L 3.078125 -4.109375 L 4.4375 -6.28125 L 6.09375 -6.28125 L 3.78125 -3 L 3.78125 0 Z M 2.390625 0 "/></g></g></g></svg>